<?xml version="1.0" encoding="utf-8"?>
<!-- Generator: Adobe Illustrator 28.1.0, SVG Export Plug-In . SVG Version: 6.00 Build 0)  -->
<svg version="1.1" id="Layer_1" xmlns="http://www.w3.org/2000/svg" xmlns:xlink="http://www.w3.org/1999/xlink" x="0px" y="0px"
	 viewBox="0 0 3000 3000" style="enable-background:new 0 0 3000 3000;" xml:space="preserve">
<style type="text/css">
	.st0{fill-rule:evenodd;clip-rule:evenodd;fill:url(#SVGID_1_);}
	.st1{fill-rule:evenodd;clip-rule:evenodd;fill:url(#SVGID_00000019666888369142031100000011319262954306228609_);}
	.st2{fill-rule:evenodd;clip-rule:evenodd;fill:url(#SVGID_00000091010891815194210080000003794473393309531792_);}
	.st3{fill-rule:evenodd;clip-rule:evenodd;fill:url(#SVGID_00000095333954287310269690000001658932629155003532_);}
	.st4{fill-rule:evenodd;clip-rule:evenodd;fill:url(#SVGID_00000091719738482630681100000005365889659210513840_);}
	.st5{fill-rule:evenodd;clip-rule:evenodd;fill:url(#SVGID_00000096778132485126180080000015569907204465871536_);}
	.st6{fill-rule:evenodd;clip-rule:evenodd;fill:url(#SVGID_00000049923093272608590820000018243269109174635449_);}
	.st7{fill-rule:evenodd;clip-rule:evenodd;fill:url(#SVGID_00000043427989117777908620000012472928483205037953_);}
	.st8{fill-rule:evenodd;clip-rule:evenodd;fill:url(#SVGID_00000009568241617933120220000007347114021687482000_);}
	.st9{fill-rule:evenodd;clip-rule:evenodd;fill:url(#SVGID_00000038386094530652090890000001814659867942144667_);}
	.st10{fill-rule:evenodd;clip-rule:evenodd;fill:url(#SVGID_00000163048201084520430260000015052869306735647888_);}
	.st11{fill-rule:evenodd;clip-rule:evenodd;fill:url(#SVGID_00000132791251709180354610000002365743677217678241_);}
	.st12{fill-rule:evenodd;clip-rule:evenodd;fill:url(#SVGID_00000045609796651919321740000014692642835342916275_);}
	.st13{fill-rule:evenodd;clip-rule:evenodd;fill:url(#SVGID_00000000924137991068405680000016052293761927618717_);}
	.st14{fill-rule:evenodd;clip-rule:evenodd;fill:url(#SVGID_00000121241916156586294090000012934839473723672244_);}
	.st15{fill-rule:evenodd;clip-rule:evenodd;fill:url(#SVGID_00000049200058819588275170000011424710626428793530_);}
	.st16{fill-rule:evenodd;clip-rule:evenodd;fill:url(#SVGID_00000080203781675642781930000009443377427973206967_);}
	.st17{fill-rule:evenodd;clip-rule:evenodd;fill:url(#SVGID_00000101080306189940741650000011438485347684795049_);}
	.st18{fill-rule:evenodd;clip-rule:evenodd;fill:url(#SVGID_00000079479282533832469730000003659691084729171870_);}
	.st19{fill-rule:evenodd;clip-rule:evenodd;fill:url(#SVGID_00000033363402472774963710000002317436111654087064_);}
	.st20{fill-rule:evenodd;clip-rule:evenodd;fill:url(#SVGID_00000145744314683854049730000006722986593246464424_);}
	.st21{fill-rule:evenodd;clip-rule:evenodd;fill:url(#SVGID_00000070821580211889096120000003394686219843087769_);}
	.st22{fill-rule:evenodd;clip-rule:evenodd;fill:url(#SVGID_00000103248218451519454780000012257119876278516130_);}
	.st23{fill-rule:evenodd;clip-rule:evenodd;fill:url(#SVGID_00000031167160351472937920000004369006444537441720_);}
	.st24{fill-rule:evenodd;clip-rule:evenodd;fill:url(#SVGID_00000127734824248889944940000002439993242321644950_);}
</style>
<g>
	<g>
		<g>
			<linearGradient id="SVGID_1_" gradientUnits="userSpaceOnUse" x1="1191.6921" y1="1101.5398" x2="1989.8201" y2="1101.5398">
				<stop  offset="0" style="stop-color:#A5CD39"/>
				<stop  offset="0.24" style="stop-color:#00A551"/>
				<stop  offset="0.63" style="stop-color:#0094D9"/>
				<stop  offset="1" style="stop-color:#00ADEE"/>
			</linearGradient>
			<path class="st0" d="M1971.2,1981.6c-3.9,1.1,27.8-59.2-0.5-161.4c-26.9-104.3-136-205.6-269.1-325.2
				c-131.4-123.7-273.3-290.9-392.8-503.6c-58.5-107-107.5-231.4-115.7-368.4c-9.1-136.9,28.5-279.9,104.8-401.4
				c1.9,0.5-39.7,62.8-68.2,182.1c-31.1,117.9-24.7,297,59.5,474.2c83.9,175.8,215.6,358.9,368.1,524.8
				c75.4,84,164.2,156.6,238.7,248.2c36,46.1,68.5,97.5,84.2,156C1995.9,1865,1992,1928,1971.2,1981.6z"/>
		</g>
	</g>
	<g>
		<g>
			
				<linearGradient id="SVGID_00000038411464154665366530000017090368970850533811_" gradientUnits="userSpaceOnUse" x1="1081.5342" y1="882.0565" x2="1442.3466" y2="882.0565">
				<stop  offset="0" style="stop-color:#A5CD39"/>
				<stop  offset="0.24" style="stop-color:#00A551"/>
				<stop  offset="0.63" style="stop-color:#0094D9"/>
				<stop  offset="1" style="stop-color:#00ADEE"/>
			</linearGradient>
			<path style="fill-rule:evenodd;clip-rule:evenodd;fill:url(#SVGID_00000038411464154665366530000017090368970850533811_);" d="
				M1442.3,1334.9c1.2-1.7-65.7-94.2-195.5-220.3c-61.4-64.4-134.1-160.3-151.9-286.9c-11-61.3-15.7-126.7-12.3-194.9
				c6.3-66.8,12.6-143.5,66.8-203.5c0.8-0.1-27.8,32.3-36.8,94.3c-11,61-9.4,147.4,6.1,244.5c13.4,98.4,49.7,202,122.6,288.5
				C1310.1,1143.9,1396.9,1230.1,1442.3,1334.9z"/>
		</g>
	</g>
	<g>
		<g>
			
				<linearGradient id="SVGID_00000065797554421374586060000014710432222501581208_" gradientUnits="userSpaceOnUse" x1="938.2029" y1="1182.9253" x2="1477.4459" y2="1182.9253">
				<stop  offset="0" style="stop-color:#A5CD39"/>
				<stop  offset="0.24" style="stop-color:#00A551"/>
				<stop  offset="0.63" style="stop-color:#0094D9"/>
				<stop  offset="1" style="stop-color:#00ADEE"/>
			</linearGradient>
			<path style="fill-rule:evenodd;clip-rule:evenodd;fill:url(#SVGID_00000065797554421374586060000014710432222501581208_);" d="
				M1477.4,1585.2c2.1-2.3-116.8-14-273.2-126.5c-76.1-56.6-161.1-140.3-216.8-260c-56.7-117.4-71.1-278.3-7.1-418
				c3.9-3.5-61.9,157.4,15.4,351.9C1067.8,1326.2,1273.4,1503.2,1477.4,1585.2z"/>
		</g>
	</g>
	<g>
		<g>
			
				<linearGradient id="SVGID_00000108268719733695338190000012886006890416142723_" gradientUnits="userSpaceOnUse" x1="813.0207" y1="1442.1075" x2="1445.8169" y2="1442.1075">
				<stop  offset="0" style="stop-color:#A5CD39"/>
				<stop  offset="0.24" style="stop-color:#00A551"/>
				<stop  offset="0.63" style="stop-color:#0094D9"/>
				<stop  offset="1" style="stop-color:#00ADEE"/>
			</linearGradient>
			<path style="fill-rule:evenodd;clip-rule:evenodd;fill:url(#SVGID_00000108268719733695338190000012886006890416142723_);" d="
				M1445.7,1702.8c1.1-2.2-100.8,24.2-264.1-22c-79.9-24-175.8-66.8-257.3-150.6c-82.4-80.5-136.1-221.1-99.7-354.2
				c2.8-5.5-29.7,153.2,90.8,294.1C1031,1608.9,1253.9,1692,1445.7,1702.8z"/>
		</g>
	</g>
	<g>
		<g>
			
				<linearGradient id="SVGID_00000102512614114509988630000001796683327816357770_" gradientUnits="userSpaceOnUse" x1="776.5232" y1="1704.8086" x2="1468.756" y2="1704.8086">
				<stop  offset="0" style="stop-color:#A5CD39"/>
				<stop  offset="0.24" style="stop-color:#00A551"/>
				<stop  offset="0.63" style="stop-color:#0094D9"/>
				<stop  offset="1" style="stop-color:#00ADEE"/>
			</linearGradient>
			<path style="fill-rule:evenodd;clip-rule:evenodd;fill:url(#SVGID_00000102512614114509988630000001796683327816357770_);" d="
				M1224.6,1795.2c-81.1-10.5-162-28.9-239.7-56.6c-77.2-29.3-149.1-73.7-208.3-130.4c64,51.5,137.4,88.4,215.2,110.4
				c76.3,27.2,155.1,45.2,235.7,55.6c79.4,12.5,161.6,28,241.2,10.2C1390.3,1809.4,1305.7,1800.9,1224.6,1795.2z"/>
		</g>
	</g>
	<g>
		<g>
			
				<linearGradient id="SVGID_00000098920464364462956180000000503559658757844411_" gradientUnits="userSpaceOnUse" x1="2049.8259" y1="1091.3696" x2="2558.6682" y2="1091.3696">
				<stop  offset="0" style="stop-color:#A5CD39"/>
				<stop  offset="0.24" style="stop-color:#00A551"/>
				<stop  offset="0.63" style="stop-color:#0094D9"/>
				<stop  offset="1" style="stop-color:#00ADEE"/>
			</linearGradient>
			<path style="fill-rule:evenodd;clip-rule:evenodd;fill:url(#SVGID_00000098920464364462956180000000503559658757844411_);" d="
				M2049.8,1751.7c-1.2-1.2,37.7-23.9,89.6-84.2c52.5-58.1,105.3-170.5,83.3-308.8c-8.9-68.6-31.9-140.9-59-218.9
				c-12.5-39.8-29.4-78.6-33.2-129.8c1.2-47.6,7.6-93.4,19.3-140.6c46.5-182.1,183.9-387.6,408.7-438.2
				c1.2,1.9-57.7,11.7-134.4,67.2c-76.5,53.8-166,157.4-216.9,299.8c-24.3,69.6-44.4,153-37.9,230.1
				c17.2,78.1,54.7,161.2,72.9,250.2c19.5,88.3,23.3,187.5-12.6,276.1C2194,1643.1,2123.1,1708.6,2049.8,1751.7z"/>
		</g>
	</g>
	<g>
		<g>
			
				<linearGradient id="SVGID_00000156556713530680365870000003957068329799852966_" gradientUnits="userSpaceOnUse" x1="1779.8848" y1="1030.5637" x2="2129.0798" y2="1030.5637">
				<stop  offset="0" style="stop-color:#A5CD39"/>
				<stop  offset="0.24" style="stop-color:#00A551"/>
				<stop  offset="0.63" style="stop-color:#0094D9"/>
				<stop  offset="1" style="stop-color:#00ADEE"/>
			</linearGradient>
			<path style="fill-rule:evenodd;clip-rule:evenodd;fill:url(#SVGID_00000156556713530680365870000003957068329799852966_);" d="
				M1786.4,1127.7c14.9-106.8,65.8-202.6,118.1-293.2c57.7-88.2,132.7-166.7,224.5-216.1c-88.3,55.7-156.2,137.4-206.7,227.3
				c-51.5,89.3-101.3,182.9-115.3,285.4c-20.3,101.6-17.7,207.5-6.3,311.4C1782.6,1339.6,1772.5,1233.6,1786.4,1127.7z"/>
		</g>
	</g>
	<g>
		<g>
			
				<linearGradient id="SVGID_00000060737616876825184800000015485941769237493670_" gradientUnits="userSpaceOnUse" x1="1267.6471" y1="2103.6426" x2="2517.5505" y2="2103.6426">
				<stop  offset="0" style="stop-color:#A5CD39"/>
				<stop  offset="0.24" style="stop-color:#00A551"/>
				<stop  offset="0.63" style="stop-color:#0094D9"/>
				<stop  offset="1" style="stop-color:#00ADEE"/>
			</linearGradient>
			<path style="fill-rule:evenodd;clip-rule:evenodd;fill:url(#SVGID_00000060737616876825184800000015485941769237493670_);" d="
				M2007.2,1892.6c-0.3,0.1,56.2-35,132.6-117.8c39.4-39.4,87.7-90.1,161.7-122.2c35.1-16.6,89.6-15.5,118.6,27
				c19.9,45,44,79,82.1,116.4l12.6,15.5l1.5,2l0.8,0.9l0.4,0.5c0.6,0.5-10.5,16.7-10.5,16.7l-4.5-0.3l-9-0.6
				c-12.1-1.8-24.1-0.4-36.2,1.3c-23.7,4.6-47.3,13.8-67.4,30.3c-41.7,30.9-72.9,79.4-101.7,130.4c-54,104.8-114,224.2-205.9,327.8
				c-92,104.4-217.8,189-364.7,228.7c-73.1,22.8-156.6,17-230.3,3.4c-38-6.2-76.4-13.4-114.6-24.9c-35.8-14.4-82-19.8-104.9-72.1
				c-1-0.5,10.3,31,47.6,45.6c35.5,16.6,88.7,28.2,155.6,36.1c66.2,7.3,149.7,19.6,237.6-9.8c87-26.8,179.5-74,262.4-144.8
				c84-69.5,151.9-166.3,213-271.1c29.1-52.6,54.9-110.4,88.9-165.7c33.7-54.2,76.3-112.2,145-139.1c17.2-6.1,48.9-3.3,48.9-3.3
				c-17-23.5-24.3-22.8-44-54.5c-19.4-35.4-23.1-62.2-44-71.9c-20.2-13.2-46.2-11.4-73.1-1.9
				C2193.5,1717.2,2119.3,1831.2,2007.2,1892.6z"/>
		</g>
	</g>
	<g>
		<g>
			
				<linearGradient id="SVGID_00000047045867612952890440000015531732230195777671_" gradientUnits="userSpaceOnUse" x1="475.3561" y1="2327.978" x2="1402.3618" y2="2327.978">
				<stop  offset="0" style="stop-color:#A5CD39"/>
				<stop  offset="0.24" style="stop-color:#00A551"/>
				<stop  offset="0.63" style="stop-color:#0094D9"/>
				<stop  offset="1" style="stop-color:#00ADEE"/>
			</linearGradient>
			<path style="fill-rule:evenodd;clip-rule:evenodd;fill:url(#SVGID_00000047045867612952890440000015531732230195777671_);" d="
				M1402.4,2260.5c-0.7-0.8-18.1,22.5-62,53.7c-43.9,31.2-115.4,65.9-205.6,102.6c-89.3,42.3-212.1,58.6-342.6,40.6
				c-63.6-8.4-138.7-22.4-196.9-73.5c-58.3-49.8-93.2-121-120-192.8c0.6-0.4,15.6,36.3,51.6,91.9c34,55.3,105.1,127.7,210.9,140.4
				c103,17.6,225.5,22.2,340-12.6C1191.5,2369.3,1315.6,2332.4,1402.4,2260.5z"/>
		</g>
	</g>
	<g>
		<g>
			
				<linearGradient id="SVGID_00000093860689873955212720000016375979672812363401_" gradientUnits="userSpaceOnUse" x1="619.1055" y1="2524.7041" x2="1126.4043" y2="2524.7041">
				<stop  offset="0" style="stop-color:#A5CD39"/>
				<stop  offset="0.24" style="stop-color:#00A551"/>
				<stop  offset="0.63" style="stop-color:#0094D9"/>
				<stop  offset="1" style="stop-color:#00ADEE"/>
			</linearGradient>
			<path style="fill-rule:evenodd;clip-rule:evenodd;fill:url(#SVGID_00000093860689873955212720000016375979672812363401_);" d="
				M1126.4,2465.7c-0.1-0.4-51.5,34.7-145.7,71.8c-47.1,18-105,37.1-173.4,44.2c-34.1,3.2-71.4,3.8-109.9-8
				c-38.5-9.2-77.7-48-78.3-93c1.4-1.2,1.9,24.5,28.3,49.9c26.1,25.8,75.2,33.9,128.1,28.6
				C882.7,2548.7,1012.7,2501.3,1126.4,2465.7z"/>
		</g>
	</g>
	<g>
		<g>
			
				<linearGradient id="SVGID_00000021121092140113305980000010306790655423805623_" gradientUnits="userSpaceOnUse" x1="691.4434" y1="2610.4946" x2="1200.3418" y2="2610.4946">
				<stop  offset="0" style="stop-color:#A5CD39"/>
				<stop  offset="0.24" style="stop-color:#00A551"/>
				<stop  offset="0.63" style="stop-color:#0094D9"/>
				<stop  offset="1" style="stop-color:#00ADEE"/>
			</linearGradient>
			<path style="fill-rule:evenodd;clip-rule:evenodd;fill:url(#SVGID_00000021121092140113305980000010306790655423805623_);" d="
				M1200.3,2502.8c-3.2-2.1-57.3,31.2-138.7,89.4c-41.8,28.1-92,61.4-153.8,90.2c-31,14-64.8,27.5-103.3,33.5
				c-35.7,6.6-90.2,1.4-113-42c0.1-1.5,13.3,22.8,49.5,29.6c35.2,6.4,81.1-8.5,129.6-31.7C970.1,2627.4,1076.4,2538.7,1200.3,2502.8
				z"/>
		</g>
	</g>
	<g>
		<g>
			
				<linearGradient id="SVGID_00000067235700202753210850000003485553355316299696_" gradientUnits="userSpaceOnUse" x1="954.5675" y1="2711.1638" x2="1326.1719" y2="2711.1638">
				<stop  offset="0" style="stop-color:#A5CD39"/>
				<stop  offset="0.24" style="stop-color:#00A551"/>
				<stop  offset="0.63" style="stop-color:#0094D9"/>
				<stop  offset="1" style="stop-color:#00ADEE"/>
			</linearGradient>
			<path style="fill-rule:evenodd;clip-rule:evenodd;fill:url(#SVGID_00000067235700202753210850000003485553355316299696_);" d="
				M1326.1,2529.9c1.6,3-69-2.1-152.7,50.9c-85.5,51.6-150.6,173.7-218.8,314.3c1.4,0.5,17.2-78.4,66.3-178.1
				c25-49.2,61.7-104,117-142.7C1192.6,2534.8,1265,2520.9,1326.1,2529.9z"/>
		</g>
	</g>
	<g>
		<g>
			
				<linearGradient id="SVGID_00000098199421920449776820000006377882725700122803_" gradientUnits="userSpaceOnUse" x1="592.9326" y1="2201.9258" x2="1193.3917" y2="2201.9258">
				<stop  offset="0" style="stop-color:#A5CD39"/>
				<stop  offset="0.24" style="stop-color:#00A551"/>
				<stop  offset="0.63" style="stop-color:#0094D9"/>
				<stop  offset="1" style="stop-color:#00ADEE"/>
			</linearGradient>
			<path style="fill-rule:evenodd;clip-rule:evenodd;fill:url(#SVGID_00000098199421920449776820000006377882725700122803_);" d="
				M1193.3,2312.1c0.8-2.1-70.6,35.9-199.7,25.2c-63.5-5-140.2-20.7-217.6-60.6c-75.8-37.6-159.8-107.5-183.1-211.9
				c-0.8-1.9,36.2,108.8,161.3,171.6C872.8,2301.9,1049.4,2336.9,1193.3,2312.1z"/>
		</g>
	</g>
	<g>
		<g>
			
				<linearGradient id="SVGID_00000034082778289367033880000013401975228663079337_" gradientUnits="userSpaceOnUse" x1="1350.5487" y1="1892.7494" x2="1626.9232" y2="1892.7494">
				<stop  offset="0" style="stop-color:#A5CD39"/>
				<stop  offset="0.24" style="stop-color:#00A551"/>
				<stop  offset="0.63" style="stop-color:#0094D9"/>
				<stop  offset="1" style="stop-color:#00ADEE"/>
			</linearGradient>
			<path style="fill-rule:evenodd;clip-rule:evenodd;fill:url(#SVGID_00000034082778289367033880000013401975228663079337_);" d="
				M1530,1941.6c-36.3,8.1-77.7,4.9-111.1-15c-31.9-22.5-53-54.1-68.4-86.9c21.2,29.3,47.7,54.9,78.5,68.4
				c28.8,17,63.7,20,96.9,12.7c34.2-3.4,68.1-16.3,101-30.5C1597.2,1910.8,1566.2,1930.5,1530,1941.6z"/>
		</g>
	</g>
	<g>
		<g>
			
				<linearGradient id="SVGID_00000176038562898195189180000000249569312455449237_" gradientUnits="userSpaceOnUse" x1="1549.8898" y1="2057.9514" x2="1754.9242" y2="2057.9514">
				<stop  offset="0" style="stop-color:#A5CD39"/>
				<stop  offset="0.24" style="stop-color:#00A551"/>
				<stop  offset="0.63" style="stop-color:#0094D9"/>
				<stop  offset="1" style="stop-color:#00ADEE"/>
			</linearGradient>
			<path style="fill-rule:evenodd;clip-rule:evenodd;fill:url(#SVGID_00000176038562898195189180000000249569312455449237_);" d="
				M1619.7,2076.7c25,2.8,51.3-2,74.4-12.4c24.6-6.8,48.5-21.4,60.8-47c-5.3,27.8-27.1,51.9-52.2,66.3
				c-26.7,11.9-55.9,17.3-85.2,14.1c-28.7-5.4-57-23.2-67.6-50.1C1567.1,2070.8,1594.5,2078.2,1619.7,2076.7z"/>
		</g>
	</g>
	<g>
		<g>
			
				<linearGradient id="SVGID_00000032617944733476284450000001516610570808274622_" gradientUnits="userSpaceOnUse" x1="1409.5869" y1="2186.0156" x2="1739.4843" y2="2186.0156">
				<stop  offset="0" style="stop-color:#A5CD39"/>
				<stop  offset="0.24" style="stop-color:#00A551"/>
				<stop  offset="0.63" style="stop-color:#0094D9"/>
				<stop  offset="1" style="stop-color:#00ADEE"/>
			</linearGradient>
			<path style="fill-rule:evenodd;clip-rule:evenodd;fill:url(#SVGID_00000032617944733476284450000001516610570808274622_);" d="
				M1646,2210.5c-36.9,18.5-78.3,29.4-119.9,29.2c-41.6-3.9-80.5-17.5-116.4-35c38.4,11.1,78.2,17.1,116.5,13.8
				c38.4,0.2,76.1-9.7,110.7-27c36-14.5,70.2-35.8,102.7-59.2C1711.4,2161.1,1681.1,2188.5,1646,2210.5z"/>
		</g>
	</g>
	<g>
		<g>
			
				<linearGradient id="SVGID_00000162348474190988272360000000610514916516599974_" gradientUnits="userSpaceOnUse" x1="1232.0948" y1="2133.0024" x2="1545.1362" y2="2133.0024">
				<stop  offset="0" style="stop-color:#A5CD39"/>
				<stop  offset="0.24" style="stop-color:#00A551"/>
				<stop  offset="0.63" style="stop-color:#0094D9"/>
				<stop  offset="1" style="stop-color:#00ADEE"/>
			</linearGradient>
			<path style="fill-rule:evenodd;clip-rule:evenodd;fill:url(#SVGID_00000162348474190988272360000000610514916516599974_);" d="
				M1437.3,2176.8c-38.4-1.9-76.2-9.2-112.5-21.6c-34.6-16-69.5-35.5-92.7-65.9c28.1,25.2,64.2,36.9,99.4,45.8
				c34.4,11.8,70.6,18.9,106.8,20.6c35.7,4.7,73.6,4.7,106.8-12.9C1515.6,2166.7,1475.5,2174.8,1437.3,2176.8z"/>
		</g>
	</g>
	<g>
		<g>
			
				<linearGradient id="SVGID_00000165220233316211448160000017378843139060041359_" gradientUnits="userSpaceOnUse" x1="1070.2993" y1="2005.2537" x2="1455.7885" y2="2005.2537">
				<stop  offset="0" style="stop-color:#A5CD39"/>
				<stop  offset="0.24" style="stop-color:#00A551"/>
				<stop  offset="0.63" style="stop-color:#0094D9"/>
				<stop  offset="1" style="stop-color:#00ADEE"/>
			</linearGradient>
			<path style="fill-rule:evenodd;clip-rule:evenodd;fill:url(#SVGID_00000165220233316211448160000017378843139060041359_);" d="
				M1323.2,2060.4c-47.8,0.7-95.2-9-139.4-26.6c-43.1-20.5-81.6-49.6-113.5-83.7c36.6,28.9,77.7,50.9,121,64
				c41.9,16.7,86.8,25.8,131.7,25.1c44.9,3.3,90.7-5.3,132.8-24.8C1417.2,2040.1,1371.1,2056.7,1323.2,2060.4z"/>
		</g>
	</g>
	<g>
		<g>
			
				<linearGradient id="SVGID_00000096057682959064080930000015243716660174725271_" gradientUnits="userSpaceOnUse" x1="1034.7686" y1="1877.1643" x2="1284.1887" y2="1877.1643">
				<stop  offset="0" style="stop-color:#A5CD39"/>
				<stop  offset="0.24" style="stop-color:#00A551"/>
				<stop  offset="0.63" style="stop-color:#0094D9"/>
				<stop  offset="1" style="stop-color:#00ADEE"/>
			</linearGradient>
			<path style="fill-rule:evenodd;clip-rule:evenodd;fill:url(#SVGID_00000096057682959064080930000015243716660174725271_);" d="
				M1181.2,1949.8c-36.3-8.3-67.1-30.7-91.9-56.1c-22.2-28.5-39.1-59.2-54.6-90.4c21.2,27.5,44,53.8,69.4,75.6
				c23.2,23.7,50.5,43.1,81.8,50.3c30.2,10.7,65.2,8.8,98.2-0.2C1253.7,1944.4,1218.3,1954.6,1181.2,1949.8z"/>
		</g>
	</g>
	<g>
		<g>
			
				<linearGradient id="SVGID_00000018936978318133344220000017824458101191036589_" gradientUnits="userSpaceOnUse" x1="1829.7457" y1="1924.7482" x2="1950.2522" y2="1924.7482">
				<stop  offset="0" style="stop-color:#A5CD39"/>
				<stop  offset="0.24" style="stop-color:#00A551"/>
				<stop  offset="0.63" style="stop-color:#0094D9"/>
				<stop  offset="1" style="stop-color:#00ADEE"/>
			</linearGradient>
			<path style="fill-rule:evenodd;clip-rule:evenodd;fill:url(#SVGID_00000018936978318133344220000017824458101191036589_);" d="
				M1940.9,1842.4c15.9,54.8,10.9,114.1-9.5,166.4c-24,50.9-60.5,93.4-101.7,127.9c36.5-39.6,66.2-85.7,82.3-135.6
				c18.8-48.6,23.4-102.8,8.8-152.7c-11.1-50.9-40.9-97.6-79-135.4C1884.3,1745.4,1921.6,1788.7,1940.9,1842.4z"/>
		</g>
	</g>
	<g>
		<g>
			
				<linearGradient id="SVGID_00000002354535991564295930000000019949104021057190_" gradientUnits="userSpaceOnUse" x1="1978.9058" y1="1104.0988" x2="2080.001" y2="1104.0988">
				<stop  offset="0" style="stop-color:#A5CD39"/>
				<stop  offset="0.24" style="stop-color:#00A551"/>
				<stop  offset="0.63" style="stop-color:#0094D9"/>
				<stop  offset="1" style="stop-color:#00ADEE"/>
			</linearGradient>
			<path style="fill-rule:evenodd;clip-rule:evenodd;fill:url(#SVGID_00000002354535991564295930000000019949104021057190_);" d="
				M2020.1,1025.3c-14.2,47.7-21.2,97.7-20.2,147.5c-2.9,49.6,2.1,100.9,23.9,147.3c-27.9-42.9-40.7-95.2-44.8-147
				c-1-52.1,6.3-104.1,21.1-153.9c17.4-48.8,43-95.6,79.9-131C2048.3,928.4,2030.3,976.5,2020.1,1025.3z"/>
		</g>
	</g>
	<g>
		<g>
			
				<linearGradient id="SVGID_00000045610848208784989820000002218017793965587130_" gradientUnits="userSpaceOnUse" x1="2065.4167" y1="644.6143" x2="2334.8633" y2="644.6143">
				<stop  offset="0" style="stop-color:#A5CD39"/>
				<stop  offset="0.24" style="stop-color:#00A551"/>
				<stop  offset="0.63" style="stop-color:#0094D9"/>
				<stop  offset="1" style="stop-color:#00ADEE"/>
			</linearGradient>
			<path style="fill-rule:evenodd;clip-rule:evenodd;fill:url(#SVGID_00000045610848208784989820000002218017793965587130_);" d="
				M2211.1,545.4c-33.7,46.2-60.7,97.7-83.8,150.5c-26,51.5-49.2,105.2-61.8,162.6c5.6-58.6,22.6-115.6,42.7-171.1
				c23.7-54,51.2-106.5,86.1-154.5c37.2-44.8,81.8-90.7,140.5-102.1C2278.4,449.3,2241.9,498.1,2211.1,545.4z"/>
		</g>
	</g>
	<g>
		<g>
			
				<linearGradient id="SVGID_00000081633660108700676460000009674581868164807854_" gradientUnits="userSpaceOnUse" x1="1124.1107" y1="2700.8469" x2="1285.2433" y2="2700.8469">
				<stop  offset="0" style="stop-color:#A5CD39"/>
				<stop  offset="0.24" style="stop-color:#00A551"/>
				<stop  offset="0.63" style="stop-color:#0094D9"/>
				<stop  offset="1" style="stop-color:#00ADEE"/>
			</linearGradient>
			<path style="fill-rule:evenodd;clip-rule:evenodd;fill:url(#SVGID_00000081633660108700676460000009674581868164807854_);" d="
				M1200,2630.3c-22.7,28.6-38.1,62.9-48.1,98.6c-13.6,34.8-22.1,72.4-26.8,110.5c-2.2-38.4-0.6-77.5,6.7-116.3
				c10.6-37.8,27.1-74.7,52-106.1c28.3-28,62-52.5,101.4-54.7C1247.9,2571.1,1220,2601.4,1200,2630.3z"/>
		</g>
	</g>
	<g>
		<g>
			
				<linearGradient id="SVGID_00000180331420313209536470000017482295796924648887_" gradientUnits="userSpaceOnUse" x1="2321.0942" y1="1739.8306" x2="2387.7847" y2="1739.8306">
				<stop  offset="0" style="stop-color:#A5CD39"/>
				<stop  offset="0.24" style="stop-color:#00A551"/>
				<stop  offset="0.63" style="stop-color:#0094D9"/>
				<stop  offset="1" style="stop-color:#00ADEE"/>
			</linearGradient>
			<path style="fill-rule:evenodd;clip-rule:evenodd;fill:url(#SVGID_00000180331420313209536470000017482295796924648887_);" d="
				M2385.4,1724.2c10.9,29.6-17.2,50.9-40.5,46.8c-24.5-5.9-31.5-39.3-14.6-49.5c-9.8,17.2,6.4,31.6,17.9,28.6
				c9.8,3.8,23.1-11.4,18.4-16.6c-0.7-9-21.7-26.3-32.6-14C2341.3,1701.9,2370.8,1705.7,2385.4,1724.2z"/>
		</g>
	</g>
	<g>
		<g>
			
				<linearGradient id="SVGID_00000036248245752252465920000013433913818941511830_" gradientUnits="userSpaceOnUse" x1="1331.6531" y1="1041.8359" x2="2023.9437" y2="1041.8359">
				<stop  offset="0" style="stop-color:#A5CD39"/>
				<stop  offset="0.24" style="stop-color:#00A551"/>
				<stop  offset="0.63" style="stop-color:#0094D9"/>
				<stop  offset="1" style="stop-color:#00ADEE"/>
			</linearGradient>
			<path style="fill-rule:evenodd;clip-rule:evenodd;fill:url(#SVGID_00000036248245752252465920000013433913818941511830_);" d="
				M1714.9,1388.4c-163.5-161.6-294.3-364.4-348.3-592c-57.5-222.8-50-475,66.8-674.9c-110.4,203.7-109.8,452.3-46.6,669.5
				c53.3,224.2,180.9,422.2,342.8,582.3c79,82.1,166.5,159.2,230.4,256.7c67.4,95.3,84.9,225.7,36.1,332
				c45.4-108.3,23.9-234.8-44.7-326.1C1885.7,1542.2,1797.1,1468.6,1714.9,1388.4z"/>
		</g>
	</g>
</g>
</svg>
