<svg width="656" height="642" viewBox="0 0 656 642" fill="none" xmlns="http://www.w3.org/2000/svg">
<g clip-path="url(#clip0_33_328)">
<mask id="mask0_33_328" style="mask-type:luminance" maskUnits="userSpaceOnUse" x="60" y="447" width="536" height="135">
<path d="M596 447H60V582H596V447Z" fill="white"/>
</mask>
<g mask="url(#mask0_33_328)">
<path d="M105.97 550.402V534.887L162.032 487.156H105.97V472.828H182.574V488.343L126.513 536.074H182.574V550.402H105.97Z" fill="black"/>
<path d="M192.376 550.402V472.807H206.312V550.402H192.376Z" fill="black"/>
<path d="M216.622 550.402V472.929H278.33C281.033 472.929 283.496 473.609 285.779 474.988C288.061 476.347 289.853 478.172 291.195 480.433C292.536 482.705 293.227 485.199 293.227 487.917V508.816C293.227 511.554 292.556 514.069 291.195 516.361C289.853 518.663 288.041 520.468 285.779 521.806C283.496 523.145 281.033 523.804 278.33 523.804L230.668 523.915V550.423H216.622V550.402ZM231.939 509.455H277.69C278.03 509.455 278.36 509.344 278.651 509.121C278.941 508.908 279.071 508.613 279.071 508.269V488.434C279.071 488.089 278.941 487.775 278.651 487.521C278.36 487.268 278.04 487.156 277.69 487.156H231.939C231.579 487.156 231.289 487.288 231.038 487.521C230.788 487.775 230.678 488.079 230.678 488.434V508.269C230.678 508.634 230.798 508.908 231.038 509.121C231.289 509.333 231.589 509.455 231.939 509.455ZM277.68 550.402L254.594 522.506H273.004L293.007 546.427V550.423H277.69L277.67 550.402H277.68Z" fill="black"/>
<path d="M318.955 550.402C316.252 550.402 313.789 549.723 311.567 548.344C309.324 546.985 307.542 545.16 306.191 542.898C304.849 540.627 304.159 538.153 304.159 535.415V487.775C304.159 485.037 304.829 482.542 306.191 480.291C307.532 478.02 309.334 476.225 311.567 474.846C313.809 473.487 316.252 472.787 318.955 472.787H365.987C368.69 472.787 371.152 473.467 373.375 474.846C375.617 476.205 377.389 478.02 378.751 480.291C380.092 482.563 380.783 485.057 380.783 487.775V535.415C380.783 538.153 380.112 540.647 378.751 542.898C377.409 545.17 375.607 546.975 373.375 548.344C371.132 549.703 368.69 550.402 365.987 550.402H318.955ZM319.485 536.074H365.236C365.576 536.074 365.907 535.952 366.197 535.709C366.487 535.455 366.617 535.151 366.617 534.796V488.464C366.617 488.109 366.487 487.805 366.197 487.552C365.907 487.298 365.586 487.187 365.236 487.187H319.485C319.125 487.187 318.835 487.318 318.584 487.552C318.334 487.805 318.224 488.109 318.224 488.464V534.796C318.224 535.161 318.334 535.455 318.584 535.709C318.835 535.962 319.135 536.074 319.485 536.074Z" fill="black"/>
<path d="M444.744 550.402V487.156H413.47V472.828H490.074V487.156H458.91V550.402H444.744Z" fill="black"/>
<path d="M496.54 550.402V472.807H510.476V550.402H496.54Z" fill="black"/>
<path d="M519.736 550.402V546.407L548.558 511.605L519.736 476.803V472.807H534.953L557.938 500.4L580.693 472.807H596V476.803L567.058 511.605L596 546.306V550.392H580.693L557.818 522.922L534.943 550.392H519.726L519.736 550.402Z" fill="black"/>
<path d="M123.24 447.375C128.315 447.416 128.656 454.372 123.53 454.565H67.0978V491.091C92.0353 499.659 92.0553 529.229 67.0978 537.777V574.303H317.033C320.917 574.303 321.148 581.493 317.093 581.493H60V530.02C85.2878 532.271 85.2878 496.638 60 498.879V447.406H123.24V447.365V447.375Z" fill="#1ACA0A"/>
<path d="M397.922 455.579C400.255 455.579 402.157 453.662 402.157 451.289C402.157 448.917 400.265 447 397.922 447C395.58 447 393.688 448.917 393.688 451.289C393.688 453.662 395.58 455.579 397.922 455.579Z" fill="black"/>
<path d="M397.922 471.378C400.255 471.378 402.157 469.461 402.157 467.088C402.157 464.715 400.265 462.799 397.922 462.799C395.58 462.799 393.688 464.715 393.688 467.088C393.688 469.461 395.58 471.378 397.922 471.378Z" fill="black"/>
<path d="M397.922 487.176C400.255 487.176 402.157 485.26 402.157 482.887C402.157 480.514 400.265 478.598 397.922 478.598C395.58 478.598 393.688 480.514 393.688 482.887C393.688 485.26 395.58 487.176 397.922 487.176Z" fill="black"/>
<path d="M397.922 502.975C400.255 502.975 402.157 501.059 402.157 498.696C402.157 496.333 400.265 494.407 397.922 494.407C395.58 494.407 393.688 496.323 393.688 498.696C393.688 501.069 395.58 502.975 397.922 502.975Z" fill="black"/>
<path d="M397.922 534.603C400.255 534.603 402.157 532.687 402.157 530.314C402.157 527.941 400.265 526.025 397.922 526.025C395.58 526.025 393.688 527.941 393.688 530.314C393.688 532.687 395.58 534.603 397.922 534.603Z" fill="#B72027"/>
<path d="M397.922 550.402C400.255 550.402 402.157 548.486 402.157 546.113C402.157 543.74 400.265 541.823 397.922 541.823C395.58 541.823 393.688 543.74 393.688 546.113C393.688 548.486 395.58 550.402 397.922 550.402Z" fill="#B72027"/>
<path d="M397.922 566.201C400.255 566.201 402.157 564.285 402.157 561.912C402.157 559.539 400.265 557.622 397.922 557.622C395.58 557.622 393.688 559.539 393.688 561.912C393.688 564.285 395.58 566.201 397.922 566.201Z" fill="#B72027"/>
<path d="M397.922 582C400.255 582 402.157 580.083 402.157 577.711C402.157 575.338 400.265 573.431 397.922 573.431C395.58 573.431 393.688 575.348 393.688 577.711C393.688 580.073 395.58 582 397.922 582Z" fill="#B72027"/>
<path d="M397.922 518.774C400.255 518.774 402.157 516.858 402.157 514.495C402.157 512.132 400.265 510.206 397.922 510.206C395.58 510.206 393.688 512.122 393.688 514.495C393.688 516.868 395.58 518.774 397.922 518.774Z" fill="black"/>
</g>
<path d="M434.82 408.55C434.82 417.08 386.97 424 327.95 424C268.93 424 221.07 417.08 221.07 408.55C221.07 403.95 234.98 399.82 257.05 396.99C250.03 418.14 292.51 408.49 292.51 408.49C292.51 408.49 313.51 408.94 316.95 406.98C319.73 405.4 321.45 402.84 317.87 393.17C321.19 393.12 324.55 393.1 327.95 393.1C329.47 393.1 330.99 393.1 332.5 393.12C331.29 397.11 330.52 400.78 330.94 403.4C331.53 407.09 335.2 407.35 338.44 407.59C354.53 408.82 371.47 407.47 387.67 408.55C394.19 407.29 394.82 401.61 393.14 396.31C418.49 399.13 434.82 403.57 434.82 408.55Z" fill="white"/>
<path d="M303.02 367.36H303.01L289.81 368.72C289.45 365.89 289.09 363.18 288.56 360.56C288.48 360.15 288.39 359.74 288.3 359.33C288.27 359.19 288.24 359.06 288.2 358.92C288.14 358.65 288.08 358.38 288.01 358.11C287.94 357.84 287.86 357.58 287.79 357.31C287.76 357.2 287.73 357.09 287.7 356.98C287.69 356.95 287.68 356.93 287.68 356.91C287.64 356.77 287.61 356.64 287.57 356.51C287.49 356.24 287.4 355.98 287.32 355.71C287.15 355.18 286.97 354.65 286.77 354.13C286.67 353.87 286.56 353.6 286.46 353.33C286.37 353.1 286.27 352.88 286.17 352.65C286.16 352.65 286.16 352.62 286.15 352.6C286.14 352.59 286.14 352.58 286.14 352.57C286.11 352.52 286.09 352.46 286.07 352.4C286.05 352.37 286.04 352.34 286.03 352.3C286 352.24 285.97 352.18 285.94 352.12C285.92 352.07 285.89 352.02 285.87 351.97C285.79 351.8 285.71 351.63 285.63 351.46C285.51 351.18 285.37 350.89 285.21 350.61C285.12 350.44 285.03 350.26 284.94 350.09C284.91 350.04 284.88 349.99 284.86 349.94C284.82 349.86 284.78 349.79 284.73 349.71C284.68 349.63 284.64 349.55 284.59 349.46C284.53 349.35 284.47 349.25 284.41 349.15C284.19 348.73 283.93 348.31 283.66 347.89C278.42 339.77 269.49 334.06 259.84 333.17C258.21 333.01 251.37 333.44 251.05 332.8L239.99 222.62V222.59L242.29 220.57V220.6L253.87 329.65C254.36 330.44 259.43 330.05 260.91 330.21C261.27 330.25 261.62 330.29 261.97 330.35C262.13 330.37 262.3 330.39 262.46 330.42C262.48 330.42 262.5 330.43 262.52 330.43C262.62 330.44 262.72 330.46 262.81 330.48C262.93 330.5 263.04 330.52 263.15 330.54C263.36 330.58 263.57 330.61 263.77 330.66C263.81 330.66 263.85 330.67 263.88 330.68C264.16 330.73 264.43 330.79 264.7 330.86C264.81 330.88 264.92 330.91 265.03 330.94C265.14 330.96 265.25 330.99 265.35 331.02C265.63 331.08 265.9 331.16 266.17 331.24C266.41 331.3 266.64 331.37 266.88 331.45C266.95 331.45 267.01 331.48 267.08 331.51C267.15 331.53 267.21 331.55 267.28 331.57C267.42 331.61 267.56 331.66 267.69 331.71C267.84 331.75 267.99 331.8 268.13 331.86C268.15 331.86 268.17 331.87 268.19 331.88C268.37 331.93 268.54 332 268.71 332.07C268.88 332.13 269.05 332.19 269.22 332.26C269.32 332.29 269.41 332.33 269.51 332.38C269.63 332.42 269.74 332.46 269.85 332.52C270.18 332.65 270.51 332.79 270.84 332.94H270.85C271.17 333.08 271.47 333.23 271.78 333.38C271.79 333.39 271.8 333.39 271.81 333.39C272.22 333.6 272.63 333.81 273.03 334.03C273.3 334.17 273.57 334.33 273.84 334.49C273.96 334.55 274.08 334.62 274.2 334.7C274.22 334.7 274.23 334.7 274.24 334.72C274.53 334.89 274.82 335.07 275.1 335.25C275.18 335.3 275.26 335.35 275.34 335.4C275.43 335.46 275.53 335.52 275.62 335.59C275.7 335.64 275.79 335.7 275.87 335.76C275.92 335.79 275.96 335.82 276.01 335.86C276.11 335.92 276.22 335.99 276.32 336.06C276.39 336.11 276.46 336.16 276.53 336.22C276.57 336.23 276.6 336.26 276.63 336.29C276.99 336.54 277.34 336.8 277.68 337.07C277.99 337.3 278.3 337.55 278.6 337.8C278.82 337.98 279.05 338.17 279.27 338.37C279.33 338.42 279.4 338.48 279.47 338.54C279.5 338.57 279.53 338.6 279.56 338.62C279.7 338.74 279.83 338.86 279.96 338.98C280.12 339.13 280.28 339.28 280.44 339.44C280.6 339.58 280.76 339.73 280.91 339.89C281.08 340.05 281.24 340.21 281.4 340.38C281.5 340.48 281.59 340.57 281.68 340.67C281.73 340.72 281.78 340.78 281.83 340.83C281.84 340.84 281.85 340.85 281.86 340.86V340.88C281.86 340.88 281.89 340.89 281.9 340.9L281.92 340.92C282.13 341.14 282.34 341.38 282.54 341.61C282.61 341.68 282.68 341.75 282.74 341.82C282.84 341.94 282.94 342.05 283.04 342.17C283.18 342.33 283.32 342.49 283.44 342.65C283.57 342.81 283.7 342.98 283.83 343.14C284.09 343.45 284.34 343.76 284.58 344.08C284.74 344.3 284.9 344.52 285.06 344.74C285.15 344.87 285.23 344.99 285.32 345.11C285.35 345.16 285.38 345.2 285.41 345.24C285.47 345.33 285.53 345.42 285.58 345.5C285.67 345.63 285.76 345.76 285.84 345.88C285.93 346.02 286.02 346.15 286.1 346.28C286.1 346.29 286.12 346.31 286.12 346.32C286.14 346.35 286.16 346.37 286.17 346.4C286.3 346.58 286.43 346.78 286.54 346.98C286.6 347.07 286.65 347.16 286.7 347.25C286.73 347.28 286.74 347.3 286.75 347.33C286.79 347.38 286.81 347.42 286.84 347.47C287.05 347.83 287.25 348.19 287.45 348.55C287.47 348.57 287.48 348.6 287.49 348.62C287.5 348.63 287.51 348.64 287.51 348.65C287.53 348.67 287.53 348.69 287.54 348.71C287.56 348.73 287.56 348.74 287.57 348.76C287.63 348.87 287.69 348.99 287.75 349.1C287.85 349.3 287.95 349.49 288.05 349.68C288.1 349.76 288.14 349.85 288.18 349.93C288.22 350 288.25 350.08 288.28 350.15C288.41 350.4 288.52 350.64 288.64 350.89C288.72 351.05 288.79 351.21 288.86 351.38C288.89 351.44 288.92 351.5 288.94 351.56C289.08 351.87 289.21 352.18 289.34 352.49C289.35 352.51 289.36 352.53 289.36 352.55C289.38 352.59 289.4 352.63 289.41 352.66C289.44 352.74 289.46 352.81 289.49 352.87C289.56 353.04 289.62 353.21 289.68 353.37C289.72 353.47 289.76 353.56 289.79 353.66C289.79 353.68 289.81 353.7 289.81 353.72C289.83 353.75 289.84 353.78 289.85 353.81C290.01 354.25 290.16 354.69 290.31 355.14C290.61 356.04 290.86 356.95 291.09 357.86C291.2 358.32 291.3 358.79 291.4 359.25C291.84 361.36 292.1 363.53 292.16 365.71L299.41 364.41L299.66 363.77C298.72 358.46 298.86 353.27 297.89 348.03C297.82 347.63 297.74 347.22 297.64 346.82V346.8C297.47 345.99 297.26 345.18 297.01 344.37C292.9 330.94 279.38 320.51 265.34 320.4L244.55 135.43V135.4C247.06 133.75 249.87 132.96 252.45 131.34C252.96 131.02 253.47 130.68 253.96 130.32C254.13 130.2 254.3 130.07 254.47 129.94C254.69 129.77 254.9 129.6 255.11 129.43C255.25 129.32 255.4 129.2 255.54 129.07C255.63 129 255.72 128.92 255.81 128.84C256 128.69 256.18 128.53 256.36 128.35C256.55 128.19 256.73 128.02 256.91 127.84C256.96 127.8 257.01 127.75 257.06 127.7C257.07 127.69 257.09 127.68 257.1 127.66C257.16 127.6 257.22 127.54 257.28 127.48C257.53 127.23 257.77 126.98 258.01 126.73C258.07 126.66 258.14 126.6 258.2 126.53C258.24 126.49 258.28 126.45 258.32 126.41C258.66 126.06 258.97 125.71 259.25 125.35C259.61 124.92 259.96 124.48 260.29 124.04C260.37 123.94 260.43 123.85 260.5 123.76C260.69 123.52 260.86 123.28 261.02 123.03C261.27 122.69 261.5 122.35 261.72 122C261.77 121.93 261.81 121.85 261.86 121.78C261.86 121.76 261.88 121.75 261.89 121.73C261.9 121.72 261.9 121.71 261.91 121.7C261.95 121.63 262 121.56 262.04 121.49C262.11 121.37 262.19 121.25 262.26 121.13H262.27C262.38 120.93 262.5 120.73 262.61 120.53V120.52C262.67 120.42 262.73 120.3 262.8 120.19C262.86 120.08 262.92 119.96 262.99 119.85C263 119.83 263.02 119.81 263.02 119.79C263.03 119.78 263.04 119.76 263.04 119.75C263.17 119.52 263.3 119.29 263.42 119.05C263.55 118.8 263.68 118.55 263.8 118.3C263.85 118.18 263.9 118.07 263.95 117.96C264 117.85 264.06 117.74 264.1 117.63C264.1 117.61 264.12 117.6 264.13 117.58C264.15 117.53 264.18 117.47 264.21 117.41C264.21 117.38 264.23 117.36 264.24 117.33H264.25C264.28 117.26 264.32 117.19 264.34 117.11C264.36 117.06 264.38 117.02 264.4 116.97C264.49 116.77 264.58 116.57 264.66 116.36C264.69 116.28 264.73 116.19 264.76 116.11C264.85 115.9 264.93 115.69 265.02 115.48C265.02 115.46 265.03 115.45 265.04 115.43C265.04 115.4 265.06 115.37 265.07 115.35C265.12 115.23 265.16 115.11 265.2 114.99C265.28 114.79 265.35 114.59 265.42 114.39C265.58 113.92 265.73 113.45 265.87 112.97C265.97 112.63 266.07 112.3 266.16 111.97C266.24 111.7 266.3 111.43 266.37 111.16C266.51 110.61 266.62 110.07 266.73 109.52C267.15 107.38 267.35 105.21 267.32 103.08C267.24 97.9 265.66 92.82 265.7 87.62V87.59L264.66 86.64L258.16 87.49V87.52H258.17C258.22 87.8 258.27 88.07 258.32 88.35C259.09 92.93 258.96 97.46 258.04 101.74C257.87 102.55 257.67 103.35 257.44 104.15C257.21 104.94 256.95 105.72 256.67 106.49C256.54 106.84 256.41 107.19 256.26 107.54C256.16 107.8 256.05 108.06 255.93 108.32C255.88 108.47 255.81 108.62 255.74 108.76C255.57 109.14 255.4 109.51 255.22 109.87C255.21 109.89 255.21 109.91 255.2 109.93C255.2 109.95 255.18 109.96 255.17 109.98C255.12 110.07 255.08 110.16 255.03 110.24C254.86 110.57 254.69 110.9 254.52 111.22C254.51 111.25 254.5 111.27 254.48 111.3C254.31 111.59 254.14 111.9 253.98 112.18C253.6 112.82 253.21 113.44 252.8 114.06C252.8 114.09 252.77 114.12 252.74 114.14C252.68 114.24 252.61 114.34 252.54 114.44C252.51 114.49 252.48 114.53 252.44 114.58C252.4 114.63 252.36 114.68 252.33 114.73C252.21 114.91 252.07 115.1 251.94 115.28C251.93 115.29 251.92 115.3 251.91 115.31C247.1 121.81 240.04 126.67 231.54 128.66V128.69L239.08 197.82L237.09 200.25L228.05 126.16V126.12C228.38 126.08 228.71 126.02 229.04 125.95C229.22 125.92 229.39 125.89 229.56 125.85C229.77 125.81 229.98 125.76 230.18 125.72C230.45 125.65 230.73 125.59 231 125.52C231.48 125.4 231.96 125.27 232.42 125.13C232.63 125.07 232.83 125.01 233.02 124.95C233.49 124.81 233.96 124.65 234.41 124.48C234.6 124.41 234.8 124.33 234.99 124.26C235.22 124.18 235.45 124.09 235.68 123.99C235.74 123.97 235.8 123.94 235.86 123.92C236.01 123.86 236.16 123.8 236.3 123.73C236.39 123.7 236.49 123.66 236.58 123.61C236.88 123.49 237.17 123.35 237.46 123.21C237.54 123.18 237.61 123.14 237.68 123.11C237.96 122.98 238.23 122.84 238.5 122.7C238.64 122.63 238.77 122.56 238.9 122.49C239.05 122.41 239.2 122.33 239.35 122.24C239.5 122.16 239.64 122.08 239.79 121.99C239.89 121.93 240 121.87 240.1 121.82C240.24 121.74 240.38 121.65 240.52 121.57C240.55 121.55 240.58 121.53 240.61 121.51C240.63 121.51 240.64 121.49 240.66 121.48C240.83 121.38 240.99 121.27 241.16 121.17C241.22 121.13 241.27 121.1 241.33 121.06C241.44 121 241.55 120.93 241.65 120.86C242 120.63 242.35 120.39 242.69 120.14C242.69 120.13 242.7 120.13 242.7 120.13C242.72 120.11 242.75 120.1 242.77 120.08C243.1 119.84 243.43 119.59 243.75 119.33C243.84 119.27 243.93 119.19 244.02 119.12C244.2 118.98 244.38 118.83 244.55 118.68C244.59 118.65 244.62 118.63 244.65 118.6C245.05 118.28 245.45 117.93 245.83 117.55C246.05 117.36 246.27 117.15 246.48 116.94C246.52 116.9 246.56 116.86 246.6 116.82C246.89 116.54 247.17 116.25 247.44 115.96C247.84 115.55 248.21 115.13 248.55 114.7C248.59 114.65 248.64 114.59 248.69 114.53C249.01 114.15 249.32 113.75 249.61 113.35C249.65 113.32 249.67 113.3 249.67 113.27C249.95 112.9 250.21 112.53 250.46 112.14C250.51 112.08 250.55 112.02 250.59 111.96C250.62 111.91 250.65 111.87 250.68 111.82C250.77 111.68 250.86 111.54 250.95 111.4C250.96 111.4 250.96 111.4 250.96 111.4C250.98 111.38 250.99 111.36 251 111.34C251.02 111.3 251.05 111.25 251.08 111.21C251.09 111.19 251.1 111.16 251.12 111.14C251.12 111.14 251.15 111.08 251.17 111.06C251.2 111 251.23 110.95 251.27 110.89C251.34 110.79 251.4 110.7 251.45 110.6C251.51 110.5 251.57 110.41 251.61 110.31C251.68 110.2 251.75 110.09 251.81 109.97C251.97 109.68 252.13 109.39 252.28 109.1C252.4 108.86 252.52 108.62 252.64 108.37C252.67 108.3 252.71 108.23 252.74 108.16C252.81 108.02 252.87 107.88 252.93 107.73C252.97 107.64 253.02 107.55 253.06 107.46C253.1 107.37 253.14 107.28 253.18 107.18C253.22 107.09 253.26 106.99 253.3 106.89C253.46 106.52 253.61 106.14 253.75 105.76C254.04 104.99 254.29 104.21 254.51 103.42C254.74 102.62 254.93 101.81 255.09 100.99C255.47 99.12 255.66 97.18 255.68 95.19C255.71 91.72 255.15 88.35 255.08 84.91V84.88C255.5 84.43 266.2 83.44 267.48 83.56C267.87 83.59 268.16 83.7 268.37 84.06V84.09C268.4 87.65 268.95 91.18 269.46 94.71C269.51 95.1 269.57 95.49 269.63 95.89C269.95 98.24 270.23 100.59 270.3 102.95C270.38 105.53 270.16 108.08 269.67 110.57C269.58 111.03 269.48 111.48 269.37 111.94C269.37 112.02 269.34 112.09 269.32 112.16C269.28 112.36 269.23 112.56 269.17 112.76C269.11 113.01 269.04 113.25 268.97 113.49C268.9 113.77 268.82 114.04 268.73 114.32C268.69 114.43 268.66 114.53 268.63 114.64C268.62 114.65 268.62 114.67 268.62 114.68C268.59 114.75 268.57 114.83 268.54 114.9C268.43 115.26 268.31 115.61 268.18 115.96C268.05 116.31 267.92 116.66 267.78 117C267.75 117.09 267.71 117.17 267.68 117.26C267.65 117.35 267.61 117.43 267.57 117.52C267.47 117.78 267.36 118.03 267.24 118.29C267.13 118.55 267.02 118.8 266.9 119.05C266.74 119.39 266.58 119.72 266.41 120.05C266.24 120.38 266.07 120.71 265.89 121.03C265.71 121.36 265.53 121.68 265.34 122C265.18 122.29 265.01 122.57 264.84 122.84C264.81 122.88 264.79 122.92 264.76 122.96C264.57 123.27 264.37 123.58 264.16 123.89C263.99 124.14 263.82 124.39 263.65 124.63C263.64 124.65 263.62 124.67 263.61 124.7C263.59 124.74 263.55 124.78 263.52 124.82C263.52 124.82 263.517 124.827 263.51 124.84C263.51 124.84 263.47 124.91 263.43 124.95L263.27 125.17C263.13 125.35 263 125.52 262.87 125.7C262.65 126 262.42 126.3 262.18 126.58C261.95 126.87 261.71 127.15 261.47 127.43C261.24 127.69 261.01 127.94 260.8 128.2C260.75 128.26 260.7 128.31 260.64 128.36C260.62 128.4 260.59 128.43 260.55 128.46C260.54 128.46 260.53 128.46 260.52 128.48C260.45 128.57 260.37 128.66 260.28 128.75C260.25 128.79 260.2 128.84 260.16 128.88C260.12 128.93 260.08 128.97 260.03 129.01C260 129.06 259.96 129.1 259.91 129.13C259.81 129.25 259.71 129.35 259.6 129.44C259.49 129.55 259.38 129.66 259.27 129.76C259.24 129.79 259.21 129.83 259.17 129.86C258.9 130.12 258.63 130.37 258.36 130.62C255.33 133.37 251.82 135.61 247.95 137.16V137.19L267.5 316.75L268.19 317.6C282.81 318.63 296.03 330.21 300.01 344.19C300.15 344.67 300.27 345.15 300.38 345.63C300.49 346.11 300.59 346.59 300.69 347.07C301.9 353.29 301.63 359.72 302.75 365.96C302.84 366.43 302.93 366.9 303.03 367.37L303.02 367.36Z" fill="#B72027"/>
<path d="M302.99 208.16C302.93 205.56 302.32 202.59 301.25 199.67C301.23 199.6 301.21 199.54 301.18 199.47C298.24 191.6 291.95 184.05 283.83 184.5V184.52C280.28 184.71 276.41 187.38 274.22 190.12C269.88 195.54 268.6 203.67 270.11 211.09C271.55 218.18 275.52 224.61 281.79 227.42C294.45 233.09 303.28 219.65 302.99 208.16ZM276.11 206.91C276.32 207.09 276.53 207.25 276.74 207.41C276.95 207.56 277.15 207.7 277.35 207.83C277.55 207.95 277.75 208.07 277.94 208.17H277.95C278.14 208.28 278.33 208.37 278.52 208.45C278.71 208.53 278.89 208.6 279.07 208.65C279.17 208.68 279.26 208.71 279.34 208.73C279.51 208.78 279.67 208.81 279.83 208.84C279.85 208.85 279.88 208.85 279.91 208.85C280.07 208.88 280.22 208.89 280.38 208.9C280.62 208.91 280.85 208.91 281.08 208.9L281.33 208.86C281.52 208.83 281.71 208.78 281.89 208.72C282.14 208.64 282.38 208.52 282.61 208.39C282.95 208.19 283.26 207.94 283.54 207.65C283.66 207.53 283.77 207.4 283.87 207.26C284.02 207.07 284.15 206.86 284.27 206.65L284.41 206.37C284.41 206.37 284.43 206.34 284.43 206.33C284.49 206.2 284.55 206.07 284.6 205.93C284.62 205.9 284.63 205.86 284.64 205.83C284.7 205.67 284.75 205.51 284.79 205.35C284.83 205.22 284.86 205.09 284.88 204.96C284.93 204.73 284.96 204.5 284.98 204.26C284.98 204.2 285 204.13 285 204.07C285.04 203.27 284.93 202.44 284.65 201.67C284.53 201.34 284.38 201.02 284.19 200.72C284.01 200.41 283.79 200.13 283.53 199.86C283.27 199.6 282.98 199.35 282.66 199.14C282.34 198.92 281.97 198.73 281.58 198.58C280.74 198.25 279.73 198.07 278.54 198.09C280.55 194.69 283.2 193.3 285.92 193.3C286.1 193.3 286.28 193.31 286.46 193.32C286.63 193.33 286.81 193.34 286.99 193.37C287.02 193.37 287.06 193.38 287.1 193.39C287.25 193.41 287.4 193.43 287.55 193.46C288.09 193.57 288.63 193.72 289.17 193.93C289.32 193.98 289.46 194.04 289.61 194.11C289.82 194.19 290.02 194.29 290.23 194.39C290.45 194.5 290.67 194.61 290.88 194.74C291.01 194.81 291.14 194.89 291.26 194.97C291.41 195.06 291.57 195.16 291.72 195.26C291.77 195.29 291.82 195.33 291.87 195.36C292.17 195.57 292.46 195.79 292.75 196.02C292.91 196.14 293.06 196.28 293.22 196.42C293.38 196.56 293.53 196.7 293.68 196.84C293.83 196.98 293.98 197.13 294.13 197.28C294.25 197.39 294.37 197.52 294.48 197.65C294.64 197.82 294.79 197.99 294.94 198.17C295.06 198.31 295.17 198.44 295.28 198.58C295.43 198.77 295.58 198.96 295.71 199.15C295.83 199.31 295.94 199.47 296.06 199.64C296.35 200.07 296.62 200.5 296.86 200.95C297.03 201.25 297.19 201.56 297.33 201.87C297.4 202.02 297.47 202.17 297.54 202.33C298.08 203.57 298.5 204.97 298.79 206.46C299.02 207.58 299.16 208.74 299.21 209.92C299.23 210.31 299.24 210.71 299.24 211.1C299.24 211.49 299.24 211.84 299.21 212.22C299.2 212.51 299.18 212.79 299.15 213.08C299.13 213.41 299.09 213.74 299.04 214.06C299.01 214.37 298.96 214.67 298.9 214.97C298.84 215.31 298.77 215.64 298.69 215.97C298.54 216.6 298.35 217.21 298.13 217.8C298.03 218.1 297.91 218.39 297.77 218.67C297.52 219.24 297.23 219.78 296.9 220.3C296.8 220.46 296.69 220.63 296.56 220.79C296.55 220.82 296.53 220.84 296.5 220.87C296.43 220.98 296.34 221.09 296.25 221.2C295.93 221.63 295.56 222.02 295.16 222.39C294.96 222.58 294.76 222.75 294.54 222.92C294.46 222.98 294.38 223.04 294.3 223.09C294.27 223.13 294.23 223.15 294.19 223.17C294.07 223.27 293.93 223.36 293.79 223.44C293.71 223.5 293.63 223.55 293.55 223.59C293.33 223.73 293.11 223.85 292.88 223.96C282.47 229.08 275.61 215.68 276.11 206.92V206.91Z" fill="#DADADA"/>
<path d="M344.74 187.41C344.71 187.35 344.67 187.28 344.63 187.21C341.13 181.32 335.42 177.56 327.77 179.11C316.67 181.37 313.43 198.51 318.07 210.59C320.52 217 325.19 221.98 332.06 222.57C349.16 224.04 352.41 200.59 344.74 187.41ZM321.06 201.03H321.07C321.07 201.03 321.08 201.06 321.09 201.06C323.69 203.87 326.69 203.34 328.43 201.45C328.54 201.33 328.64 201.2 328.74 201.08C328.76 201.08 328.77 201.05 328.77 201.04C328.86 200.92 328.95 200.79 329.03 200.66C329.2 200.38 329.35 200.09 329.48 199.78C329.55 199.62 329.6 199.47 329.64 199.31C329.71 199.07 329.76 198.82 329.8 198.56C329.82 198.45 329.83 198.34 329.84 198.22C329.86 198.21 329.86 198.2 329.85 198.19C329.85 198.16 329.85 198.14 329.85 198.11V198.08C329.92 196.76 329.51 195.33 328.4 194.05C328.05 193.66 327.51 193.25 326.9 192.94C326.65 192.82 326.4 192.71 326.14 192.62C326 192.57 325.87 192.53 325.74 192.5C325.59 192.46 325.44 192.43 325.29 192.41C325.12 192.38 324.94 192.37 324.77 192.37C324.66 192.37 324.55 192.38 324.45 192.39C324.37 192.39 324.3 192.41 324.22 192.43C324.16 192.44 324.1 192.45 324.04 192.48C323.96 192.49 323.87 192.52 323.79 192.56C323.7 192.6 323.61 192.65 323.52 192.7C323.56 192.58 323.6 192.45 323.65 192.33C323.7 192.2 323.76 192.07 323.84 191.93C323.9 191.8 323.98 191.67 324.07 191.54C324.14 191.41 324.24 191.27 324.35 191.14C324.44 191.01 324.54 190.88 324.66 190.75C324.87 190.49 325.12 190.23 325.38 189.99C325.71 189.69 326.05 189.4 326.41 189.15C326.51 189.07 326.62 188.99 326.73 188.92C326.85 188.84 326.97 188.76 327.09 188.69C327.21 188.62 327.32 188.55 327.43 188.5C327.58 188.41 327.73 188.33 327.88 188.27C327.93 188.24 327.98 188.22 328.04 188.2C328.15 188.15 328.25 188.11 328.36 188.07C328.64 187.96 328.91 187.89 329.17 187.85C329.46 187.8 329.75 187.77 330.04 187.75C330.11 187.74 330.19 187.73 330.26 187.73C330.75 187.7 331.23 187.7 331.7 187.74C331.88 187.74 332.07 187.76 332.25 187.79C332.35 187.8 332.45 187.81 332.55 187.83C332.71 187.86 332.88 187.88 333.03 187.92C333.06 187.92 333.1 187.93 333.13 187.94C333.33 187.98 333.54 188.03 333.73 188.09C333.75 188.09 333.78 188.1 333.8 188.11C333.96 188.14 334.1 188.19 334.25 188.25C334.31 188.27 334.38 188.29 334.44 188.32C334.8 188.45 335.16 188.61 335.51 188.78C335.68 188.87 335.85 188.96 336.02 189.06C336.23 189.18 336.44 189.31 336.64 189.44C336.84 189.58 337.03 189.72 337.22 189.86C337.42 190.01 337.61 190.16 337.79 190.32C337.98 190.48 338.16 190.65 338.34 190.82C338.76 191.24 339.16 191.68 339.54 192.16C339.7 192.37 339.86 192.58 340.02 192.8C340.33 193.24 340.62 193.7 340.89 194.18C341.16 194.66 341.41 195.15 341.65 195.66C345.02 203.07 344.2 213.56 337.84 217.61C337.35 217.92 336.87 218.18 336.39 218.4C336.09 218.54 335.79 218.66 335.49 218.75C335.35 218.8 335.21 218.84 335.08 218.88C334.94 218.92 334.8 218.96 334.66 218.99C334.52 219.02 334.39 219.05 334.25 219.07C334.14 219.1 334.02 219.12 333.9 219.13C333.52 219.18 333.15 219.21 332.78 219.21C332.56 219.21 332.33 219.21 332.11 219.18C331.78 219.15 331.44 219.11 331.12 219.03C331.01 219.01 330.9 218.98 330.79 218.96C330.58 218.9 330.36 218.84 330.15 218.77C329.88 218.69 329.61 218.58 329.35 218.46C329.17 218.38 328.99 218.29 328.81 218.2C328.59 218.09 328.38 217.97 328.16 217.84C327.95 217.71 327.74 217.58 327.54 217.43C327.19 217.2 326.85 216.93 326.52 216.63C326.36 216.48 326.2 216.33 326.04 216.18C325.88 216.03 325.72 215.87 325.57 215.7C325.26 215.37 324.97 215.03 324.69 214.67C324.54 214.49 324.4 214.31 324.28 214.12C324.17 213.98 324.07 213.84 323.98 213.69C323.88 213.55 323.79 213.4 323.7 213.26C323.63 213.16 323.56 213.05 323.5 212.94C323.39 212.77 323.29 212.59 323.19 212.4C323.17 212.38 323.15 212.35 323.14 212.31C323.02 212.12 322.93 211.92 322.83 211.73C322.62 211.31 322.42 210.88 322.24 210.45C322.14 210.24 322.05 210.02 321.98 209.79C321.79 209.3 321.63 208.79 321.48 208.28C321.24 207.44 321.05 206.58 320.95 205.73C320.93 205.5 320.9 205.27 320.88 205.05C320.74 203.66 320.8 202.3 321.07 201.04H321.06V201.03Z" fill="#DADADA"/>
<path d="M353.8 234.82C352.54 240.21 348.16 245.25 344.04 248.77C328.87 261.76 305.22 263.81 286.97 256.72L282.46 245.1C282.54 245.13 282.61 245.16 282.69 245.19C305.56 254.62 333.35 251.03 352.73 235.69C353.09 235.4 353.45 235.11 353.8 234.82Z" fill="#ACACAC"/>
<path d="M337.67 267.15L334.22 269.79C322.9 277.14 304.62 276.42 294.82 266.79C294.54 266.52 293.85 266.82 294.2 265.67C294.41 265.71 294.62 265.75 294.84 265.77C301.03 266.74 307.81 264.99 313.99 264.7C321.38 264.33 328.78 265.27 336 266.79C336.56 266.9 337.11 267.02 337.67 267.15Z" fill="#ACACAC"/>
<path d="M337.68 267.14V267.15H337.67L337.68 267.14Z" fill="#ACACAC"/>
<path d="M430.71 230.21C429.49 228.45 428.51 226.5 427.81 224.4C427.89 224.28 427.98 224.17 428.08 224.06C428.67 226.27 429.57 228.33 430.71 230.21Z" fill="white"/>
<path d="M291.25 166.28L282.91 166.97C276.05 168.78 270.84 176.56 270.24 183.41C269.84 183.05 269.6 182.5 269.47 181.83C269.46 181.81 269.45 181.79 269.45 181.77C268.98 179.21 270.14 174.97 270.84 173C274.16 163.73 281.85 161.88 290.04 165.69C290.44 165.87 290.85 166.07 291.25 166.28Z" fill="#ADADAD"/>
<path d="M342.56 174.1L342.12 173.39L338.89 168.22C335.49 164.66 330.76 161.48 325.7 161.34C322.98 161.27 320.7 162.39 318.13 162.6C318.37 162.33 318.61 162.07 318.85 161.82C325.94 154.55 334.29 157.72 338.98 164.47C340.9 167.23 342.21 170.6 342.56 174.1Z" fill="#ADADAD"/>
<path d="M276.11 206.91C285.2 214.55 289.39 197.89 278.54 198.08C283.96 188.88 294.1 194.4 297.53 202.32C300.39 208.93 300.17 220.36 292.88 223.95C282.47 229.07 275.61 215.67 276.11 206.91Z" fill="black"/>
<path d="M321.07 201.03C326.15 206.6 332.87 199.23 328.41 194.05C327.44 192.92 324.92 191.78 323.51 192.7C324.07 190.67 327.09 188.16 329.16 187.84C343.53 185.59 348.59 210.76 337.85 217.6C327.93 223.93 319.15 210.08 321.08 201.03H321.06H321.07Z" fill="black"/>
<path d="M340.05 272.92C305.33 313.43 288.16 266.89 287.79 265.87C288.36 266.82 309.05 300.55 340.05 272.92Z" fill="#434343"/>
<path d="M428.08 224.06C427.98 224.17 427.89 224.28 427.81 224.4C428.51 226.5 429.49 228.45 430.71 230.21C429.57 228.33 428.67 226.27 428.08 224.06ZM406.1 260.96L402.97 260.39L408.88 308.51C408.59 309.39 403.55 310.13 402.14 310.62C385.31 316.46 376.13 334.94 379.56 352.17L372.2 352.51L371.81 351.93C371.49 345.3 369.6 339.19 370.09 332.43C371.12 318.43 381.99 305.26 395.65 302.04L390.71 258.17L387.95 257.67L392.74 298.94L392.25 299.92C378.22 304.18 367.9 318.4 367.14 332.92C366.72 340.76 369.26 348.37 369.34 356.19L382.51 354.58C381.76 346.98 381.23 340.24 383.88 332.91C387.19 323.82 394.63 316.27 403.84 313.26C405.4 312.75 412.17 311.64 412.33 310.95L406.1 260.96ZM385.6 237.39L388.43 237.89L374.83 117.04C372.02 115.98 369.11 115.84 366.23 114.83C355.96 111.24 347.71 101.15 345.45 90.55C344.37 85.49 344.79 80.17 343.59 75.12L344.4 73.96L350.92 73.35C351.55 92.44 366.95 107.48 386.02 107.58L395.5 199.5L400.47 239.99L403.56 240.53L398.64 201.04L388.87 104.32V104.34C373.08 105.34 358.75 95.86 355.05 80.26C354.25 76.89 354.05 73.47 353.36 70.1C352.85 69.76 342.2 71.17 340.97 71.57C340.6 71.69 340.34 71.86 340.22 72.26C341.57 78.42 341.3 84.9 342.52 91.08C345.38 105.55 357.39 117.19 371.92 119.5L385.6 237.39ZM351.91 222.57C348.24 223.92 343.16 232.52 360.26 232.23C365.7 231.84 368.49 235.51 368.49 235.51C368.49 235.51 371.2 217.15 351.91 222.57ZM352.73 235.69C351.01 240.29 347.19 244.5 343.59 247.6C328.47 260.5 304.9 262.52 286.7 255.49L282.69 245.19C282.61 245.16 282.54 245.13 282.46 245.1L286.97 256.72C305.22 263.81 328.87 261.76 344.04 248.77C348.16 245.25 352.54 240.21 353.8 234.82C353.45 235.11 353.09 235.4 352.73 235.69ZM344.74 187.41C351.81 200.63 348.35 222.99 331.65 221.56C325.13 221 320.6 216.5 318.07 210.59C320.52 217 325.19 221.98 332.06 222.57C349.16 224.04 352.41 200.59 344.74 187.41ZM338.98 164.47C340.66 167.09 341.79 170.18 342.12 173.39L342.56 174.1C342.21 170.6 340.9 167.23 338.98 164.47ZM338.47 167.55C335.08 164.02 330.35 160.84 325.31 160.71C323 160.64 320.99 161.45 318.85 161.82C318.61 162.07 318.37 162.33 318.13 162.6C320.7 162.39 322.98 161.27 325.7 161.34C330.76 161.48 335.49 164.66 338.89 168.22L338.47 167.55ZM336 266.79L333.8 268.46C322.64 275.69 304.68 275.06 294.84 265.77C294.62 265.75 294.41 265.71 294.2 265.67C293.85 266.82 294.54 266.52 294.82 266.79C304.62 276.42 322.9 277.14 334.22 269.79L337.67 267.15C337.11 267.02 336.56 266.9 336 266.79ZM287.79 265.87C288.16 266.89 305.33 313.43 340.05 272.92C309.05 300.55 288.36 266.82 287.79 265.87ZM302.74 365.95C301.62 359.71 301.89 353.28 300.68 347.06C300.58 346.58 300.48 346.1 300.37 345.62C300.26 345.14 300.14 344.66 300 344.18C296.02 330.2 282.8 318.62 268.18 317.59L267.49 316.74L247.94 137.18C248.1 137.12 248.27 137.05 248.43 136.98C248.59 136.91 248.75 136.84 248.91 136.77C249.09 136.7 249.26 136.62 249.44 136.53C249.68 136.42 249.93 136.31 250.17 136.19C250.41 136.07 250.66 135.95 250.9 135.82C251.38 135.57 251.85 135.31 252.32 135.04C252.79 134.77 253.25 134.49 253.7 134.2C254.15 133.91 254.59 133.61 255.03 133.3C255.12 133.24 255.2 133.17 255.29 133.11C255.63 132.87 255.97 132.61 256.31 132.35H256.32C256.74 132.01 257.16 131.67 257.57 131.32C257.83 131.09 258.09 130.86 258.35 130.61C258.49 130.5 258.63 130.38 258.76 130.25C258.83 130.19 258.9 130.12 258.96 130.06C259.01 130.01 259.06 129.96 259.11 129.91C259.12 129.89 259.14 129.87 259.16 129.85C259.2 129.82 259.23 129.78 259.26 129.75C259.37 129.65 259.48 129.54 259.59 129.43C259.7 129.34 259.8 129.24 259.9 129.12C259.95 129.09 259.99 129.05 260.02 129C260.07 128.96 260.11 128.92 260.15 128.87C260.19 128.83 260.24 128.78 260.27 128.74C260.36 128.65 260.44 128.56 260.51 128.47C260.52 128.46 260.53 128.45 260.54 128.45C260.58 128.42 260.61 128.39 260.63 128.35C260.69 128.3 260.74 128.25 260.79 128.19C260.86 128.12 260.93 128.04 261 127.96C261.16 127.78 261.32 127.6 261.46 127.42C261.66 127.2 261.85 126.97 262.04 126.74C262.09 126.68 262.13 126.63 262.17 126.57C262.41 126.29 262.64 125.99 262.86 125.69C262.92 125.62 262.98 125.55 263.03 125.48C263.11 125.38 263.19 125.27 263.26 125.16L263.42 124.94C263.42 124.94 263.48 124.86 263.5 124.83C263.5 124.83 263.503 124.823 263.51 124.81C263.51 124.81 263.58 124.73 263.6 124.69C263.6 124.66 263.63 124.64 263.64 124.62C263.75 124.47 263.86 124.33 263.96 124.18C264.02 124.08 264.09 123.98 264.15 123.88C264.36 123.57 264.56 123.26 264.75 122.95H264.76C264.76 122.95 264.81 122.87 264.83 122.83C265 122.56 265.17 122.28 265.33 121.99C265.39 121.91 265.44 121.82 265.48 121.74C265.56 121.61 265.63 121.48 265.7 121.36C265.76 121.25 265.82 121.13 265.88 121.02C266.06 120.7 266.23 120.37 266.4 120.04C266.57 119.71 266.73 119.38 266.89 119.04C267.01 118.79 267.12 118.54 267.23 118.28C267.35 118.02 267.46 117.77 267.56 117.51C267.6 117.42 267.64 117.34 267.67 117.25C267.7 117.16 267.74 117.08 267.77 116.99H267.78C267.92 116.65 268.05 116.3 268.17 115.95C268.33 115.53 268.47 115.1 268.61 114.67C268.61 114.66 268.61 114.64 268.62 114.63C268.65 114.52 268.68 114.42 268.72 114.31C268.81 114.03 268.89 113.76 268.96 113.48C269.03 113.24 269.1 113 269.16 112.75C269.22 112.55 269.27 112.35 269.31 112.15C269.33 112.08 269.35 112.01 269.36 111.93C269.47 111.47 269.57 111.02 269.66 110.56C270.15 108.07 270.37 105.52 270.29 102.94C270.22 100.58 269.94 98.23 269.62 95.88C269.56 95.48 269.5 95.09 269.45 94.7C268.94 91.17 268.39 87.64 268.36 84.08V84.05C268.15 83.69 267.86 83.58 267.47 83.55C266.19 83.43 255.49 84.42 255.07 84.87V84.9C255.14 88.34 255.7 91.71 255.67 95.18C255.65 97.17 255.46 99.11 255.08 100.98C254.92 101.8 254.73 102.61 254.5 103.41C254.28 104.2 254.02 104.98 253.74 105.75C253.64 106.04 253.53 106.33 253.41 106.61C253.4 106.64 253.38 106.68 253.37 106.72C253.34 106.77 253.32 106.82 253.29 106.88C253.25 106.98 253.21 107.08 253.17 107.17C253.13 107.27 253.09 107.36 253.05 107.45C253.01 107.54 252.96 107.63 252.92 107.72C252.86 107.87 252.8 108.01 252.73 108.15C252.7 108.22 252.66 108.29 252.63 108.36C252.51 108.61 252.39 108.85 252.27 109.09C252.12 109.38 251.96 109.67 251.8 109.96C251.74 110.08 251.67 110.19 251.6 110.3C251.56 110.4 251.5 110.49 251.44 110.59C251.39 110.69 251.33 110.78 251.26 110.88C251.22 110.94 251.19 110.99 251.16 111.05C251.16 111.08 251.14 111.11 251.11 111.13C251.09 111.15 251.08 111.18 251.07 111.2C251.04 111.24 251.01 111.29 250.99 111.33C250.99 111.35 250.97 111.37 250.95 111.39C250.95 111.39 250.95 111.39 250.94 111.39C250.85 111.53 250.76 111.67 250.67 111.81C250.64 111.86 250.61 111.9 250.58 111.95C250.54 112.01 250.5 112.07 250.45 112.13C250.2 112.52 249.94 112.89 249.66 113.26C249.66 113.29 249.64 113.31 249.6 113.34C249.31 113.74 249 114.14 248.68 114.52C248.63 114.58 248.58 114.64 248.54 114.69C248.2 115.12 247.83 115.54 247.43 115.95C247.16 116.24 246.88 116.53 246.59 116.81C246.55 116.85 246.51 116.89 246.47 116.93C246.26 117.14 246.04 117.35 245.82 117.54C245.44 117.92 245.04 118.27 244.64 118.59C244.61 118.62 244.58 118.64 244.54 118.67C244.37 118.82 244.19 118.97 244.01 119.11C243.92 119.18 243.83 119.26 243.74 119.32C243.42 119.58 243.09 119.83 242.76 120.07C242.74 120.09 242.71 120.1 242.69 120.12C242.69 120.12 242.68 120.12 242.68 120.13C242.34 120.38 241.99 120.62 241.64 120.85C241.54 120.92 241.43 120.99 241.32 121.05C241.26 121.09 241.21 121.12 241.15 121.16C240.99 121.27 240.82 121.37 240.65 121.47C240.63 121.47 240.62 121.49 240.6 121.5C240.57 121.52 240.54 121.54 240.51 121.56C240.37 121.64 240.23 121.73 240.09 121.81C239.99 121.86 239.88 121.92 239.78 121.98C239.63 122.07 239.49 122.15 239.34 122.23C239.19 122.32 239.04 122.4 238.89 122.48C238.76 122.55 238.63 122.62 238.49 122.69C238.22 122.83 237.95 122.97 237.67 123.1C237.6 123.13 237.53 123.17 237.45 123.2C237.16 123.34 236.87 123.48 236.57 123.6C236.48 123.65 236.38 123.69 236.29 123.72C236.15 123.79 236 123.85 235.85 123.91C235.79 123.93 235.73 123.96 235.67 123.98C235.44 124.08 235.21 124.17 234.98 124.25C234.79 124.32 234.59 124.4 234.4 124.47C233.95 124.64 233.48 124.8 233.01 124.94C232.82 125 232.62 125.06 232.41 125.12C231.95 125.26 231.47 125.39 230.99 125.51C230.72 125.58 230.44 125.64 230.17 125.71C229.97 125.75 229.76 125.8 229.55 125.84C229.38 125.88 229.21 125.91 229.03 125.94C228.7 126.01 228.37 126.07 228.04 126.12V126.14L237.09 200.24V200.27L239.08 197.84V197.81L231.54 128.68C231.92 128.59 232.29 128.5 232.66 128.4C232.84 128.35 233.01 128.3 233.18 128.25C233.48 128.17 233.78 128.08 234.07 127.99C234.4 127.89 234.72 127.78 235.04 127.67C235.69 127.45 236.33 127.21 236.96 126.95C237.2 126.85 237.44 126.75 237.68 126.65C237.69 126.65 237.69 126.64 237.7 126.64C237.8 126.6 237.89 126.56 237.99 126.51C238.09 126.47 238.19 126.42 238.29 126.37C238.48 126.29 238.67 126.2 238.86 126.11C238.91 126.09 238.95 126.07 239 126.04C239.67 125.72 240.32 125.38 240.96 125.02C241.1 124.94 241.25 124.85 241.39 124.77C241.55 124.68 241.71 124.58 241.87 124.48C242 124.41 242.13 124.33 242.26 124.24C242.59 124.04 242.91 123.83 243.22 123.62C243.48 123.45 243.74 123.27 243.99 123.09C244.08 123.03 244.16 122.97 244.25 122.91C244.26 122.91 244.27 122.89 244.27 122.89C244.93 122.41 245.58 121.91 246.2 121.39C246.52 121.13 246.83 120.86 247.14 120.58C247.55 120.21 247.94 119.84 248.33 119.45C248.45 119.34 248.57 119.22 248.69 119.09C249.01 118.77 249.33 118.43 249.64 118.09C249.73 117.99 249.83 117.89 249.92 117.78C250.13 117.54 250.35 117.29 250.55 117.04C250.8 116.75 251.05 116.45 251.28 116.15C251.3 116.13 251.31 116.11 251.33 116.09C251.48 115.9 251.62 115.71 251.76 115.52C251.77 115.51 251.78 115.5 251.78 115.49C251.81 115.45 251.85 115.4 251.88 115.36C251.89 115.34 251.9 115.32 251.91 115.3C251.92 115.29 251.93 115.28 251.94 115.27C252.07 115.09 252.21 114.9 252.33 114.72C252.36 114.67 252.4 114.62 252.44 114.57C252.48 114.52 252.51 114.48 252.54 114.43C252.61 114.33 252.68 114.23 252.74 114.13C252.77 114.11 252.79 114.08 252.8 114.05C253 113.77 253.18 113.49 253.36 113.21C253.39 113.17 253.41 113.13 253.44 113.08C253.63 112.79 253.81 112.48 253.98 112.17C254.02 112.13 254.04 112.08 254.07 112.03C254.16 111.87 254.26 111.72 254.34 111.56C254.37 111.5 254.4 111.45 254.43 111.39C254.45 111.36 254.47 111.32 254.48 111.29C254.5 111.26 254.51 111.24 254.52 111.21C254.55 111.17 254.58 111.12 254.6 111.08C254.69 110.91 254.78 110.75 254.86 110.58C254.92 110.46 254.98 110.35 255.03 110.23C255.08 110.15 255.12 110.06 255.17 109.97C255.17 109.95 255.2 109.94 255.2 109.92C255.21 109.9 255.21 109.88 255.22 109.86C255.25 109.81 255.28 109.76 255.3 109.71C255.41 109.49 255.51 109.27 255.61 109.05C255.66 108.95 255.7 108.85 255.74 108.75C255.81 108.61 255.88 108.46 255.93 108.31C256.05 108.05 256.16 107.79 256.26 107.53C256.41 107.18 256.54 106.83 256.67 106.48C256.95 105.71 257.21 104.93 257.44 104.14C257.67 103.34 257.87 102.54 258.04 101.73C258.96 97.45 259.09 92.92 258.32 88.34C258.27 88.06 258.22 87.79 258.17 87.51L264.66 86.66L265.7 87.61C265.66 92.81 267.24 97.89 267.32 103.07C267.35 105.2 267.15 107.37 266.73 109.51C266.62 110.06 266.51 110.6 266.37 111.15C266.3 111.42 266.24 111.69 266.16 111.96C266.02 112.5 265.86 113.05 265.69 113.58C265.6 113.85 265.51 114.11 265.42 114.38C265.35 114.58 265.28 114.78 265.2 114.98C265.16 115.1 265.12 115.22 265.07 115.34C265.06 115.36 265.05 115.39 265.04 115.42C265.03 115.44 265.02 115.45 265.02 115.47C264.93 115.68 264.85 115.89 264.76 116.1C264.73 116.18 264.69 116.27 264.66 116.35C264.58 116.56 264.49 116.76 264.4 116.96C264.38 117.01 264.36 117.05 264.34 117.1C264.32 117.18 264.28 117.25 264.25 117.32H264.24C264.24 117.32 264.21 117.37 264.21 117.4C264.18 117.46 264.15 117.52 264.13 117.57C264.12 117.59 264.11 117.6 264.1 117.62C264.06 117.73 264 117.84 263.95 117.95C263.9 118.06 263.85 118.17 263.8 118.28C263.68 118.54 263.55 118.79 263.42 119.04C263.38 119.12 263.34 119.2 263.3 119.28C263.22 119.44 263.13 119.59 263.04 119.74C263.04 119.75 263.03 119.77 263.02 119.78C263.02 119.8 263 119.82 262.99 119.84C262.92 119.95 262.86 120.07 262.8 120.18C262.73 120.29 262.67 120.41 262.61 120.51V120.52C262.49 120.72 262.38 120.92 262.26 121.11C262.19 121.24 262.11 121.36 262.04 121.48C262 121.55 261.95 121.62 261.91 121.69C261.9 121.69 261.9 121.71 261.89 121.72C261.88 121.74 261.87 121.75 261.86 121.77C261.81 121.84 261.77 121.92 261.72 121.99C261.5 122.34 261.27 122.68 261.02 123.02C260.86 123.27 260.69 123.51 260.5 123.75C260.43 123.84 260.37 123.93 260.29 124.03C259.96 124.47 259.61 124.91 259.25 125.34C258.97 125.7 258.66 126.05 258.32 126.4C258.28 126.44 258.24 126.48 258.2 126.52C258.14 126.59 258.07 126.65 258.01 126.72C257.77 126.98 257.53 127.23 257.28 127.47C257.22 127.53 257.16 127.59 257.1 127.65C257.09 127.67 257.07 127.68 257.06 127.69C257.01 127.74 256.96 127.79 256.91 127.83C256.73 128.01 256.55 128.18 256.36 128.34C256.18 128.52 256 128.68 255.81 128.83C255.72 128.91 255.63 128.99 255.54 129.06C255.4 129.19 255.25 129.31 255.11 129.42C254.9 129.59 254.69 129.76 254.47 129.93C254.3 130.06 254.13 130.19 253.96 130.31C253.47 130.67 252.96 131.01 252.45 131.33C249.87 132.95 247.06 133.74 244.55 135.39V135.42L265.34 320.39V320.42C279.38 320.53 292.9 330.96 297.01 344.39C297.26 345.19 297.46 345.99 297.64 346.79V346.81C297.74 347.21 297.82 347.62 297.89 348.02C298.86 353.26 298.72 358.45 299.66 363.76L299.41 364.4L292.16 365.7C292.1 363.52 291.84 361.35 291.4 359.24C291.3 358.78 291.2 358.31 291.09 357.85C290.86 356.94 290.61 356.03 290.31 355.13C290.16 354.68 290.01 354.24 289.85 353.8H289.84C289.84 353.8 289.83 353.74 289.81 353.71C289.81 353.69 289.8 353.67 289.79 353.65C289.76 353.55 289.72 353.46 289.68 353.36C289.62 353.2 289.56 353.03 289.49 352.86C289.46 352.8 289.44 352.73 289.41 352.65C289.4 352.62 289.38 352.58 289.36 352.54C289.36 352.52 289.36 352.5 289.34 352.48H289.33C289.21 352.17 289.08 351.86 288.94 351.55C288.92 351.49 288.89 351.43 288.86 351.37C288.86 351.35 288.86 351.33 288.83 351.32C288.82 351.27 288.8 351.23 288.77 351.19C288.73 351.09 288.69 350.98 288.64 350.88C288.52 350.63 288.41 350.39 288.28 350.14C288.25 350.07 288.22 349.99 288.18 349.92C288.15 349.84 288.11 349.75 288.06 349.67C287.96 349.48 287.86 349.29 287.76 349.09C287.7 348.98 287.64 348.86 287.58 348.75C287.57 348.73 287.57 348.72 287.55 348.7C287.55 348.7 287.54 348.7 287.53 348.68C287.53 348.67 287.53 348.65 287.52 348.64C287.52 348.64 287.51 348.62 287.5 348.61C287.5 348.59 287.48 348.56 287.46 348.54C287.26 348.18 287.06 347.82 286.85 347.46H286.84C286.84 347.46 286.79 347.36 286.76 347.32C286.75 347.29 286.74 347.27 286.71 347.24C286.66 347.15 286.61 347.06 286.55 346.97C286.44 346.77 286.31 346.57 286.18 346.39C286.17 346.36 286.15 346.34 286.13 346.31C286.13 346.3 286.12 346.28 286.11 346.27C286.03 346.14 285.94 346.01 285.85 345.87C285.77 345.75 285.68 345.62 285.59 345.49C285.54 345.41 285.48 345.32 285.42 345.23C285.39 345.19 285.36 345.15 285.33 345.1C285.24 344.98 285.16 344.86 285.07 344.73C284.91 344.51 284.75 344.29 284.59 344.07C284.35 343.75 284.1 343.44 283.84 343.13C283.71 342.97 283.58 342.8 283.45 342.64C283.41 342.59 283.37 342.55 283.33 342.5C283.29 342.45 283.25 342.41 283.21 342.36C283.16 342.29 283.11 342.23 283.05 342.16C282.95 342.04 282.85 341.93 282.75 341.81C282.69 341.74 282.62 341.67 282.55 341.6C282.35 341.37 282.14 341.13 281.93 340.91L281.91 340.89C281.91 340.89 281.89 340.87 281.88 340.87V340.85C281.88 340.85 281.85 340.83 281.84 340.82C281.83 340.82 281.82 340.82 281.81 340.8C281.77 340.75 281.73 340.71 281.69 340.66C281.6 340.56 281.51 340.47 281.41 340.37C281.25 340.2 281.09 340.04 280.92 339.88C280.77 339.72 280.61 339.57 280.45 339.43C280.29 339.27 280.13 339.12 279.97 338.97C279.84 338.85 279.71 338.73 279.57 338.61C279.54 338.59 279.51 338.56 279.48 338.53C279.41 338.47 279.34 338.41 279.28 338.36C279.06 338.16 278.83 337.97 278.61 337.79C278.31 337.54 278 337.29 277.69 337.06C277.35 336.79 277 336.53 276.64 336.28C276.61 336.25 276.58 336.22 276.54 336.21C276.37 336.09 276.2 335.96 276.02 335.85C275.97 335.81 275.93 335.78 275.88 335.75C275.8 335.69 275.71 335.63 275.63 335.58C275.54 335.51 275.44 335.45 275.35 335.39C275.27 335.34 275.19 335.29 275.11 335.24C274.83 335.06 274.54 334.88 274.25 334.71C274.25 334.7 274.23 334.69 274.21 334.69C274.09 334.61 273.97 334.54 273.85 334.48C273.58 334.32 273.31 334.16 273.04 334.02C272.64 333.8 272.23 333.59 271.82 333.38C271.81 333.38 271.8 333.38 271.79 333.37C271.48 333.22 271.18 333.07 270.86 332.93H270.85C270.52 332.78 270.19 332.64 269.86 332.51C269.75 332.45 269.64 332.41 269.52 332.37C269.42 332.32 269.33 332.28 269.23 332.25C269.06 332.18 268.89 332.12 268.72 332.06C268.55 331.99 268.38 331.92 268.2 331.87C268.18 331.86 268.16 331.85 268.14 331.85C268 331.79 267.85 331.74 267.7 331.7C267.57 331.65 267.43 331.6 267.29 331.56C267.22 331.54 267.16 331.52 267.09 331.5C267.02 331.47 266.96 331.45 266.89 331.44C266.65 331.36 266.42 331.29 266.18 331.23C265.91 331.15 265.64 331.07 265.36 331.01C265.26 330.98 265.15 330.95 265.04 330.93C264.93 330.9 264.82 330.87 264.71 330.85C264.44 330.78 264.17 330.72 263.89 330.67C263.86 330.66 263.82 330.65 263.78 330.65C263.58 330.6 263.37 330.57 263.16 330.53C263.05 330.51 262.94 330.49 262.82 330.47C262.73 330.45 262.63 330.43 262.53 330.42C262.51 330.42 262.49 330.41 262.47 330.41C262.31 330.38 262.14 330.36 261.98 330.34C261.63 330.28 261.28 330.24 260.92 330.2C259.44 330.04 254.37 330.43 253.88 329.64L242.3 220.59V220.56L240 222.58V222.61L251.06 332.79V332.82C251.38 333.46 258.22 333.03 259.85 333.19C269.5 334.08 278.43 339.79 283.67 347.91C283.93 348.32 284.19 348.73 284.42 349.14C284.48 349.24 284.54 349.34 284.6 349.45C284.65 349.54 284.69 349.62 284.74 349.7C284.79 349.78 284.83 349.85 284.87 349.93C284.89 349.98 284.92 350.03 284.95 350.08C285.04 350.25 285.13 350.43 285.22 350.6C285.37 350.89 285.51 351.17 285.64 351.45C285.72 351.62 285.8 351.79 285.88 351.96C285.9 352.01 285.93 352.06 285.95 352.11C285.98 352.17 286.01 352.23 286.04 352.29C286.05 352.33 286.06 352.36 286.08 352.39C286.1 352.44 286.12 352.49 286.13 352.54C286.14 352.55 286.15 352.55 286.15 352.56C286.15 352.57 286.15 352.58 286.16 352.59C286.17 352.61 286.17 352.63 286.18 352.64C286.28 352.87 286.38 353.09 286.47 353.32C286.57 353.59 286.68 353.86 286.78 354.12C286.97 354.64 287.15 355.17 287.33 355.69C287.41 355.97 287.5 356.23 287.58 356.5C287.62 356.63 287.65 356.76 287.69 356.9C287.69 356.92 287.7 356.94 287.71 356.97C287.74 357.08 287.77 357.19 287.8 357.3C287.87 357.57 287.95 357.83 288.02 358.1C288.09 358.37 288.15 358.64 288.21 358.91C288.25 359.05 288.28 359.18 288.31 359.32C288.4 359.73 288.49 360.14 288.57 360.55C289.1 363.17 289.46 365.88 289.82 368.71V368.74L303.03 367.38V367.35C302.93 366.88 302.84 366.41 302.75 365.94L302.74 365.95ZM302.99 208.16C302.93 205.56 302.32 202.59 301.25 199.67C302.13 202.28 302.62 204.89 302.68 207.22C302.95 218.65 294.17 231.99 281.55 226.35C275.59 223.69 271.7 217.75 270.11 211.1C271.55 218.18 275.52 224.61 281.79 227.42C294.45 233.09 303.28 219.65 302.99 208.16ZM290.04 165.69L282.65 166.31C275.82 168.1 270.63 175.84 270.01 182.64C269.78 182.43 269.6 182.16 269.47 181.83C269.6 182.5 269.84 183.05 270.24 183.41C270.84 176.56 276.05 168.78 282.91 166.97L291.25 166.28C290.85 166.07 290.44 165.87 290.04 165.69ZM230.14 263.7H230.16C230.15 263.7 230.15 263.7 230.14 263.7Z" fill="black"/>
<path d="M303.02 367.36V367.39L289.81 368.75V368.72C289.45 365.89 289.09 363.18 288.56 360.56C288.45 360.01 288.33 359.46 288.2 358.92C288.14 358.65 288.08 358.38 288.01 358.11C287.94 357.84 287.86 357.58 287.79 357.31C287.76 357.2 287.73 357.09 287.7 356.98C287.69 356.95 287.68 356.93 287.68 356.91C287.56 356.5 287.45 356.11 287.32 355.71C287.14 355.18 286.96 354.65 286.77 354.13C286.67 353.87 286.56 353.6 286.46 353.33C286.37 353.1 286.27 352.88 286.17 352.65C286.16 352.65 286.16 352.62 286.15 352.6C286.14 352.59 286.14 352.58 286.14 352.57C286.11 352.52 286.09 352.46 286.07 352.4C286.05 352.37 286.04 352.34 286.03 352.3C286 352.24 285.97 352.18 285.94 352.12C285.92 352.07 285.89 352.02 285.87 351.97C285.79 351.8 285.71 351.63 285.63 351.46C285.5 351.18 285.36 350.9 285.21 350.61C285.12 350.44 285.03 350.26 284.94 350.09C284.91 350.04 284.88 349.99 284.86 349.94C284.82 349.86 284.78 349.79 284.73 349.71C284.68 349.63 284.64 349.55 284.59 349.46C284.53 349.35 284.47 349.25 284.41 349.15C284.18 348.74 283.92 348.33 283.66 347.92C278.42 339.8 269.49 334.09 259.84 333.2C258.21 333.04 251.37 333.47 251.05 332.83V332.8L239.99 222.62L242.29 220.6L253.87 329.65V329.68C254.36 330.47 259.43 330.08 260.91 330.24C269.14 331.15 276.37 335.09 281.8 340.81C281.81 340.82 281.82 340.82 281.83 340.83C281.84 340.84 281.85 340.85 281.86 340.86V340.88C282.1 341.12 282.32 341.36 282.54 341.61C282.76 341.86 282.98 342.12 283.2 342.37C283.24 342.42 283.28 342.46 283.32 342.51C283.36 342.56 283.4 342.6 283.44 342.65C283.57 342.81 283.7 342.98 283.83 343.14C284.44 343.9 285.02 344.69 285.58 345.5C285.67 345.63 285.76 345.76 285.84 345.88C285.93 346.02 286.02 346.15 286.1 346.28C286.1 346.29 286.12 346.31 286.12 346.32C286.14 346.35 286.16 346.37 286.17 346.4C286.35 346.68 286.53 346.96 286.7 347.25C286.73 347.28 286.74 347.3 286.75 347.33C286.78 347.37 286.81 347.42 286.83 347.47C287.07 347.88 287.3 348.28 287.52 348.69C287.74 349.1 287.96 349.52 288.17 349.93C288.21 350.01 288.24 350.08 288.28 350.15C288.45 350.5 288.61 350.85 288.77 351.2C288.8 351.24 288.82 351.28 288.83 351.33C289 351.72 289.17 352.1 289.33 352.49C289.34 352.51 289.35 352.53 289.36 352.55C289.38 352.59 289.4 352.63 289.41 352.66C289.44 352.74 289.46 352.81 289.49 352.87C289.56 353.04 289.62 353.21 289.68 353.37C289.72 353.47 289.76 353.56 289.79 353.66C289.79 353.68 289.81 353.7 289.81 353.72C289.83 353.75 289.84 353.78 289.84 353.81C290 354.25 290.16 354.69 290.31 355.14C290.6 356.04 290.86 356.95 291.09 357.86C291.2 358.32 291.3 358.79 291.4 359.25C291.84 361.36 292.1 363.53 292.16 365.71V365.74L299.41 364.44L299.66 363.79V363.77C298.72 358.46 298.86 353.27 297.89 348.03C297.82 347.63 297.74 347.22 297.64 346.82V346.8C297.46 346 297.26 345.2 297.01 344.4C292.9 330.97 279.38 320.54 265.34 320.43V320.4L244.55 135.43C247.06 133.78 249.87 132.99 252.45 131.37C254.61 130.01 256.58 128.33 258.31 126.41C258.65 126.06 258.96 125.71 259.24 125.35C259.62 124.92 259.96 124.49 260.28 124.04C260.36 123.94 260.42 123.85 260.49 123.76C260.68 123.52 260.85 123.28 261.01 123.03C261.26 122.69 261.49 122.35 261.71 122C261.77 121.93 261.81 121.85 261.85 121.78C261.85 121.76 261.87 121.75 261.88 121.73C261.89 121.72 261.89 121.71 261.9 121.7C261.94 121.63 261.99 121.56 262.03 121.49C262.11 121.37 262.18 121.25 262.26 121.13C262.39 120.93 262.51 120.72 262.61 120.52C262.67 120.42 262.73 120.3 262.8 120.19C262.86 120.08 262.92 119.96 262.99 119.85C263 119.83 263.02 119.81 263.02 119.79C263.03 119.78 263.04 119.76 263.04 119.75C263.13 119.6 263.22 119.45 263.3 119.29C263.34 119.21 263.38 119.13 263.42 119.05C263.56 118.8 263.68 118.55 263.8 118.3C263.85 118.18 263.9 118.07 263.95 117.96C264 117.85 264.06 117.74 264.1 117.63C264.1 117.61 264.12 117.6 264.13 117.58C264.15 117.53 264.18 117.47 264.21 117.41C264.23 117.38 264.24 117.36 264.25 117.33C264.28 117.26 264.32 117.19 264.34 117.11C264.36 117.06 264.38 117.02 264.4 116.97C264.49 116.77 264.58 116.57 264.66 116.36C264.69 116.28 264.73 116.19 264.76 116.11C264.86 115.9 264.94 115.69 265.02 115.48C265.02 115.46 265.03 115.45 265.04 115.43C265.04 115.42 265.04 115.4 265.04 115.38C265.05 115.37 265.06 115.36 265.06 115.35C265.11 115.23 265.15 115.11 265.19 114.99C265.27 114.79 265.34 114.59 265.41 114.39C265.5 114.12 265.59 113.86 265.68 113.59C265.85 113.06 266.01 112.51 266.15 111.97C266.23 111.7 266.29 111.43 266.36 111.16C266.5 110.61 266.61 110.07 266.72 109.52C267.14 107.38 267.34 105.21 267.31 103.08C267.23 97.9 265.65 92.82 265.69 87.62L264.65 86.67L258.16 87.52H258.15C258.2 87.8 258.26 88.07 258.31 88.35C259.08 92.93 258.95 97.46 258.03 101.74C257.86 102.55 257.66 103.35 257.43 104.15C257.2 104.94 256.94 105.72 256.66 106.49C256.53 106.84 256.4 107.19 256.25 107.54C256.15 107.8 256.04 108.06 255.92 108.32C255.87 108.47 255.8 108.62 255.73 108.76C255.69 108.86 255.65 108.96 255.6 109.06C255.5 109.28 255.4 109.5 255.29 109.72C255.27 109.77 255.24 109.83 255.22 109.88C255.21 109.9 255.2 109.91 255.19 109.93C255.19 109.95 255.17 109.96 255.16 109.98C255.13 110.07 255.08 110.15 255.03 110.24C254.98 110.36 254.92 110.47 254.85 110.59C254.77 110.76 254.68 110.92 254.59 111.09C254.57 111.13 254.54 111.18 254.51 111.22C254.5 111.25 254.49 111.27 254.47 111.3C254.46 111.33 254.44 111.37 254.42 111.4C254.39 111.46 254.36 111.51 254.33 111.57C254.25 111.73 254.15 111.88 254.06 112.04C254.03 112.09 254.01 112.14 253.97 112.18C253.8 112.49 253.62 112.8 253.43 113.09C253.4 113.14 253.38 113.18 253.35 113.22C253.17 113.5 252.99 113.78 252.79 114.06C252.79 114.09 252.76 114.12 252.73 114.14C252.67 114.24 252.6 114.34 252.53 114.44C252.5 114.49 252.47 114.53 252.43 114.58C252.39 114.63 252.35 114.68 252.32 114.73C252.29 114.78 252.26 114.82 252.24 114.87C252.19 114.93 252.14 114.99 252.1 115.05C252.1 115.07 252.08 115.09 252.06 115.11C252.03 115.15 252 115.2 251.96 115.24C251.95 115.25 251.94 115.27 251.93 115.28C251.93 115.29 251.92 115.3 251.92 115.3C251.9 115.33 251.89 115.35 251.87 115.37C251.84 115.41 251.8 115.46 251.77 115.5C251.77 115.51 251.76 115.52 251.75 115.53C251.61 115.72 251.47 115.91 251.32 116.1C251.3 116.12 251.29 116.14 251.27 116.16C251.04 116.46 250.79 116.76 250.54 117.05C250.34 117.3 250.12 117.55 249.91 117.79C249.82 117.9 249.72 118 249.63 118.1C249.32 118.44 249 118.78 248.68 119.1C248.56 119.23 248.44 119.35 248.32 119.46C247.93 119.85 247.54 120.22 247.13 120.59C246.82 120.87 246.51 121.14 246.19 121.4C245.57 121.92 244.92 122.42 244.26 122.9C244.26 122.9 244.25 122.92 244.24 122.92C244.15 122.98 244.07 123.04 243.98 123.1C243.73 123.28 243.47 123.46 243.21 123.63C242.9 123.84 242.58 124.05 242.25 124.25C242.12 124.34 241.99 124.42 241.86 124.49C241.7 124.59 241.54 124.69 241.38 124.78C241.24 124.86 241.09 124.95 240.95 125.03C240.31 125.39 239.66 125.73 238.99 126.05C238.94 126.08 238.9 126.1 238.85 126.12C238.66 126.21 238.47 126.3 238.28 126.38C238.18 126.43 238.08 126.48 237.98 126.52C237.88 126.57 237.79 126.61 237.69 126.65C237.68 126.65 237.68 126.66 237.67 126.66C237.43 126.76 237.19 126.86 236.95 126.96C236.32 127.22 235.68 127.46 235.03 127.68C234.71 127.79 234.39 127.9 234.06 128C233.77 128.09 233.47 128.18 233.17 128.26C233 128.31 232.83 128.36 232.65 128.41C232.28 128.51 231.91 128.6 231.53 128.69L239.07 197.82V197.85L237.08 200.28V200.25L228.03 126.15C233.03 125.35 237.66 123.52 241.62 120.86C241.97 120.63 242.32 120.39 242.66 120.14C242.66 120.13 242.67 120.13 242.67 120.13C242.69 120.11 242.72 120.1 242.74 120.08C242.86 120 242.97 119.91 243.08 119.83C243.22 119.73 243.36 119.63 243.49 119.52C243.51 119.52 243.53 119.49 243.55 119.47C243.72 119.35 243.88 119.22 244.03 119.1C244.19 118.97 244.34 118.84 244.5 118.71C244.5 118.71 244.507 118.7 244.52 118.68C244.52 118.68 244.59 118.63 244.62 118.6C245.02 118.28 245.42 117.93 245.8 117.55C246.02 117.36 246.24 117.15 246.45 116.94C246.49 116.9 246.53 116.86 246.57 116.82C246.86 116.54 247.14 116.25 247.41 115.96C247.81 115.55 248.18 115.13 248.52 114.7C248.56 114.65 248.61 114.59 248.66 114.53C248.98 114.15 249.29 113.75 249.58 113.35C249.62 113.32 249.64 113.3 249.64 113.27C249.92 112.9 250.18 112.53 250.43 112.14C250.48 112.08 250.52 112.02 250.56 111.96C250.59 111.91 250.62 111.87 250.65 111.82C250.74 111.68 250.83 111.54 250.92 111.4C250.93 111.4 250.93 111.4 250.93 111.4C250.95 111.38 250.96 111.36 250.97 111.34C250.99 111.3 251.02 111.25 251.05 111.21C251.06 111.19 251.07 111.16 251.09 111.14C251.12 111.12 251.14 111.09 251.14 111.06C251.17 111 251.2 110.95 251.24 110.89C251.31 110.79 251.37 110.7 251.42 110.6C251.48 110.5 251.54 110.41 251.58 110.31C251.65 110.2 251.72 110.09 251.78 109.97C251.94 109.68 252.1 109.39 252.25 109.1C252.37 108.86 252.49 108.62 252.61 108.37C252.64 108.3 252.68 108.23 252.71 108.16C252.83 107.93 252.93 107.7 253.03 107.46C253.07 107.37 253.11 107.28 253.15 107.18C253.22 107.03 253.29 106.88 253.35 106.73C253.36 106.69 253.38 106.65 253.39 106.62C253.51 106.34 253.62 106.05 253.72 105.76C254.01 104.99 254.26 104.21 254.48 103.42C254.71 102.62 254.9 101.81 255.06 100.99C255.44 99.12 255.63 97.18 255.65 95.19C255.68 91.72 255.12 88.35 255.05 84.91C255.47 84.46 266.17 83.47 267.45 83.59C267.84 83.62 268.13 83.73 268.34 84.09C268.37 87.65 268.92 91.18 269.43 94.71C269.48 95.1 269.54 95.49 269.6 95.89C269.92 98.24 270.2 100.59 270.27 102.95C270.35 105.53 270.13 108.08 269.64 110.57C269.55 111.03 269.45 111.48 269.34 111.94C269.34 112.02 269.31 112.09 269.29 112.16C269.25 112.36 269.2 112.56 269.14 112.76C269.08 113.01 269.01 113.25 268.94 113.49C268.87 113.77 268.79 114.04 268.7 114.32C268.66 114.43 268.63 114.53 268.6 114.64C268.59 114.65 268.59 114.67 268.59 114.68C268.56 114.75 268.54 114.83 268.51 114.9C268.4 115.26 268.28 115.61 268.15 115.96C268.03 116.31 267.9 116.66 267.76 117C267.72 117.09 267.69 117.18 267.65 117.26C267.62 117.35 267.58 117.43 267.54 117.52C267.44 117.78 267.33 118.03 267.21 118.29C267.1 118.55 266.99 118.8 266.87 119.05C266.71 119.39 266.55 119.72 266.38 120.05C266.16 120.5 265.92 120.94 265.68 121.37C265.61 121.49 265.54 121.62 265.46 121.75C265.26 122.12 265.04 122.48 264.81 122.84C264.79 122.88 264.76 122.92 264.74 122.96C264.48 123.38 264.22 123.79 263.94 124.19C263.85 124.32 263.76 124.45 263.67 124.58C263.64 124.62 263.61 124.66 263.58 124.7C263.56 124.74 263.52 124.78 263.49 124.82C263.49 124.82 263.487 124.827 263.48 124.84C263.48 124.84 263.44 124.91 263.4 124.95L263.24 125.17C263.17 125.28 263.09 125.39 263.01 125.49C262.96 125.56 262.9 125.63 262.84 125.7C262.62 126 262.39 126.3 262.15 126.58C262.11 126.64 262.07 126.69 262.02 126.75C261.83 126.98 261.64 127.21 261.44 127.43C261.3 127.61 261.14 127.79 260.98 127.97C260.91 128.05 260.84 128.13 260.77 128.2C260.72 128.26 260.67 128.31 260.61 128.36C260.59 128.4 260.56 128.43 260.52 128.46C260.44 128.56 260.35 128.65 260.25 128.75C260.22 128.79 260.17 128.84 260.13 128.88C260.09 128.93 260.05 128.97 260 129.01C259.97 129.06 259.93 129.1 259.88 129.13C259.78 129.25 259.68 129.35 259.57 129.44C259.46 129.55 259.35 129.66 259.24 129.76C259.21 129.79 259.18 129.83 259.14 129.86C259.12 129.88 259.1 129.9 259.09 129.92C259.04 129.97 258.99 130.02 258.94 130.07C258.88 130.13 258.81 130.2 258.74 130.26C258.35 130.63 257.95 130.99 257.55 131.33C257.14 131.68 256.72 132.02 256.3 132.35H256.29C255.95 132.62 255.61 132.88 255.27 133.12C255.18 133.18 255.1 133.25 255.01 133.31C254.57 133.62 254.13 133.92 253.68 134.21C253.23 134.5 252.77 134.78 252.3 135.05C251.83 135.32 251.36 135.58 250.88 135.83C250.64 135.96 250.39 136.08 250.15 136.2C249.91 136.32 249.66 136.43 249.42 136.54C249.24 136.63 249.07 136.71 248.89 136.78C248.73 136.85 248.57 136.92 248.41 136.99C248.25 137.06 248.08 137.13 247.92 137.19L267.47 316.75V316.78L268.16 317.63C282.78 318.66 296 330.24 299.98 344.22C300.11 344.69 300.23 345.16 300.35 345.63C300.46 346.11 300.56 346.59 300.66 347.07C301.87 353.29 301.6 359.72 302.72 365.96C302.8 366.43 302.89 366.9 302.99 367.37H303L303.02 367.36Z" fill="#1ACA0A"/>
<path d="M406.1 260.96L402.97 260.39L408.88 308.51C408.59 309.39 403.55 310.13 402.14 310.62C385.31 316.46 376.13 334.94 379.56 352.17L372.2 352.51L371.81 351.93C371.49 345.3 369.6 339.19 370.09 332.43C371.12 318.43 381.99 305.26 395.65 302.04L390.71 258.17L387.95 257.67L392.74 298.94L392.25 299.92C378.22 304.18 367.9 318.4 367.14 332.92C366.72 340.76 369.26 348.37 369.34 356.19L382.51 354.58C381.76 346.98 381.23 340.24 383.88 332.91C387.19 323.82 394.63 316.27 403.84 313.26C405.4 312.75 412.17 311.64 412.33 310.95L406.1 260.96ZM385.6 237.39L388.43 237.89L374.83 117.04C372.02 115.98 369.11 115.84 366.23 114.83C355.96 111.24 347.71 101.15 345.45 90.55C344.37 85.49 344.79 80.17 343.59 75.12L344.4 73.96L350.92 73.35C351.55 92.44 366.95 107.48 386.02 107.58L395.5 199.5L400.47 239.99L403.56 240.53L398.64 201.04L388.87 104.32V104.34C373.08 105.34 358.75 95.86 355.05 80.26C354.25 76.89 354.05 73.47 353.36 70.1C352.85 69.76 342.2 71.17 340.97 71.57C340.6 71.69 340.34 71.86 340.22 72.26C341.57 78.42 341.3 84.9 342.52 91.08C345.38 105.55 357.39 117.19 371.92 119.5L385.6 237.39Z" fill="#B72027"/>
<path d="M485.82 196.54C480.82 194.34 474.91 200.09 470.27 201.6C473.96 196.81 490.06 187.97 480.66 181.24C473.19 175.9 466.77 187.03 461.02 190.4C462.95 185.72 467.11 181.77 465.66 176.28C465.33 175 463.79 173.15 462.65 172.47C456.49 168.83 453.28 175.54 450.7 179.86C447.33 185.51 445.02 191.8 441.29 197.22C440.05 192.31 438.26 183.36 432.04 182.61C428.91 182.24 426.05 182.84 424.46 185.77C421.77 190.76 426.6 195.97 426.9 201.37C427.2 206.77 424.04 212.7 425.82 218.34C419.13 223.75 419.07 232.34 423.45 239.32L414.73 242.48L399.62 94.57C397.49 95.46 395.62 96.7 393.31 97.26C383.25 99.65 371.14 93.88 366.1 84.97C361.82 77.4 362.6 68.41 362.1 60.01H362.13L321.28 64.93C320.38 71.82 318.41 76.64 311.79 79.56C301.69 84.02 288.34 81.6 286.34 69.22L245.74 74.15C246.03 81.41 248.7 88.46 248.14 95.77C246.99 110.75 230.97 122.22 216.45 116.92L225.65 204.18C225.48 204.75 218.3 208.29 216.97 209.16C203.45 218.14 195.95 233.03 198.55 249.37C198.79 250.86 200.39 255.51 200.25 256.26C200.19 256.56 197.65 259.87 197.08 261.3C195.27 265.8 194.79 270.56 197.35 274.91C198.15 276.25 200.48 277.86 200.77 278.81C201.41 281 200.6 285.41 200.99 288.31C201.38 291.22 203.02 294.77 204.27 297.43C197.68 297.51 190.4 304.14 195.99 310.32C201.76 316.71 217.91 312.74 224.57 309.19C229.02 306.82 232.25 303.22 235.92 299.87L240.32 344.14C242.73 343.13 245.04 341.63 247.61 340.96C261.39 337.41 275.16 346.2 278.48 359.8C279.94 365.78 279.41 372.97 279.79 379.17L296.81 377.16L297.98 383.59C297.98 383.59 273.91 371.74 259.47 391.75C258.37 393.68 257.57 395.42 257.05 396.99C250.03 418.14 292.51 408.49 292.51 408.49C292.51 408.49 313.51 408.94 316.95 406.98C319.73 405.4 321.45 402.84 317.87 393.17C317.04 390.91 315.92 388.27 314.46 385.16C313.29 381.56 312.72 378.21 312.5 375.31L321.18 374.28C321.43 364.48 329.06 357.95 338.74 358.73C339.04 363.15 339.7 368.05 339.1 372.48C338.43 377.43 334.72 385.81 332.5 393.12C331.29 397.11 330.52 400.78 330.94 403.4C331.53 407.09 335.2 407.35 338.44 407.59C354.53 408.82 371.47 407.47 387.67 408.55C394.19 407.29 394.82 401.61 393.14 396.31C392.3 393.7 390.91 391.18 389.38 389.33C381.43 379.71 368.01 377.5 356.59 381.43C355.16 381.92 353.82 382.84 352.34 383.26L355.54 367.99L391.36 363.62C389.64 354.61 386.82 345.88 390.14 336.87C394.88 323.99 409.85 316.22 423.02 321.29L417.23 262.97C424.21 261.6 430.87 259.21 436.39 254.62C437.89 253.39 440.19 250.29 441.56 249.57C443.95 248.3 447.13 248.77 450.45 246.77C454.91 244.07 454.88 240.86 457.57 238.31C459.98 236.03 468.96 230.96 472.21 230.07C478.09 228.48 489.93 229.21 487.7 219.47C486.54 214.37 480.66 214.95 476.84 214.74C476.3 214.71 475.5 215.06 475.63 214.26C479.1 213.03 487.43 208.83 489.2 205.67C491.16 202.2 489.31 198.09 485.82 196.54ZM340.97 71.57C342.2 71.17 352.85 69.76 353.36 70.1C354.05 73.47 354.25 76.89 355.05 80.26C358.75 95.86 373.08 105.34 388.86 104.34V104.32L398.64 201.04L403.56 240.53L400.47 239.99L395.5 199.5L386.02 107.58C366.95 107.48 351.55 92.44 350.92 73.35L344.4 73.96L343.59 75.12C344.79 80.17 344.37 85.49 345.45 90.55C347.71 101.15 355.96 111.24 366.23 114.83C369.11 115.84 372.02 115.98 374.83 117.04L388.43 237.89L385.6 237.39L371.92 119.5C357.39 117.19 345.38 105.55 342.52 91.08C341.3 84.9 341.57 78.42 340.22 72.26C340.34 71.86 340.6 71.69 340.97 71.57ZM338.98 164.47C340.9 167.23 342.21 170.6 342.56 174.1L342.12 173.39L338.89 168.22C335.49 164.66 330.76 161.48 325.7 161.34C322.98 161.27 320.7 162.39 318.13 162.6C318.37 162.33 318.61 162.07 318.85 161.82C318.49 161.88 318.13 161.93 317.76 161.96C325.2 153.51 334.25 157.09 338.98 164.47ZM327.37 178.37C335.34 176.76 341.19 180.92 344.63 187.21C344.67 187.28 344.71 187.35 344.74 187.41C352.41 200.59 349.16 224.04 332.06 222.57C325.19 221.98 320.52 217 318.07 210.59C312.91 198.55 316.01 180.67 327.37 178.37ZM301.18 199.47C301.21 199.54 301.23 199.6 301.25 199.67C302.32 202.59 302.93 205.56 302.99 208.16C303.28 219.65 294.45 233.09 281.79 227.42C275.52 224.61 271.55 218.18 270.11 211.1C268.29 203.47 269.47 194.93 274 189.29C276.19 186.58 280.03 183.92 283.57 183.72H283.58C291.97 183.26 298.41 191.35 301.18 199.47ZM290.96 165.61L290.04 165.69C290.44 165.87 290.85 166.07 291.25 166.28L282.91 166.97C276.05 168.78 270.84 176.56 270.24 183.41C269.84 183.05 269.6 182.5 269.47 181.83C269.46 181.81 269.45 181.79 269.45 181.77C268.5 179.4 269.84 174.45 270.61 172.29C274.08 162.62 282.35 161.08 290.96 165.61ZM230.05 262.44C229.95 262.4 229.86 262.36 229.76 262.32C219.6 258.02 209.39 260.89 203.84 270.55C203.52 271.09 202.74 274.57 201.8 273.63C201.48 272.52 201.3 271.44 201.24 270.4C200.48 257.57 218.03 250.57 227.85 259.04C228.39 259.52 230.6 261.73 230.05 262.44ZM230.14 263.71C230.14 263.71 230.15 263.71 230.16 263.71H230.14ZM230.53 253.21C228.44 252.33 226.51 251.09 224.31 250.42C221.03 249.43 217.46 250.42 216.94 246.59C215.86 238.33 220.88 230.13 227.38 225.47L230.54 253.19V253.21H230.53ZM303.02 367.39L289.81 368.75V368.72C289.45 365.89 289.09 363.18 288.56 360.56C288.45 360.01 288.33 359.46 288.2 358.92C288.14 358.65 288.08 358.38 288.01 358.11C287.94 357.84 287.86 357.58 287.79 357.31C287.76 357.2 287.73 357.09 287.7 356.98C287.69 356.95 287.68 356.93 287.68 356.91C287.56 356.5 287.45 356.11 287.32 355.71C287.14 355.18 286.96 354.65 286.77 354.13C286.67 353.87 286.56 353.6 286.46 353.33C286.37 353.1 286.27 352.88 286.17 352.65C286.16 352.65 286.16 352.62 286.15 352.6C286.14 352.59 286.14 352.58 286.14 352.57C286.14 352.56 286.13 352.56 286.12 352.55C286.07 352.4 286 352.26 285.94 352.12C285.92 352.07 285.89 352.02 285.87 351.97C285.79 351.8 285.71 351.63 285.63 351.46C285.5 351.18 285.36 350.9 285.21 350.61C285.12 350.44 285.03 350.26 284.94 350.09C284.91 350.04 284.88 349.99 284.86 349.94C284.82 349.86 284.78 349.79 284.73 349.71C284.68 349.63 284.64 349.55 284.59 349.46C284.53 349.35 284.47 349.25 284.41 349.15C284.18 348.74 283.92 348.33 283.66 347.92C278.42 339.8 269.49 334.09 259.84 333.2C258.21 333.04 251.37 333.47 251.05 332.83V332.8L239.99 222.62V222.59L242.29 220.57V220.6L253.87 329.65C254.36 330.44 259.43 330.05 260.91 330.21C261.27 330.25 261.62 330.29 261.97 330.35C262.13 330.37 262.3 330.39 262.46 330.42C262.48 330.42 262.5 330.43 262.52 330.43C262.62 330.44 262.72 330.46 262.81 330.48C262.93 330.5 263.04 330.52 263.15 330.54C263.36 330.58 263.57 330.61 263.77 330.66C263.81 330.66 263.85 330.67 263.88 330.68C264.16 330.73 264.43 330.79 264.7 330.86C264.81 330.88 264.92 330.91 265.03 330.94C265.14 330.96 265.25 330.99 265.35 331.02C265.63 331.08 265.9 331.16 266.17 331.24C266.41 331.3 266.64 331.37 266.88 331.45C266.95 331.45 267.01 331.48 267.08 331.51C267.15 331.53 267.21 331.55 267.28 331.57C267.42 331.61 267.56 331.66 267.69 331.71C267.84 331.75 267.99 331.8 268.13 331.86C268.15 331.86 268.17 331.87 268.19 331.88C268.37 331.93 268.54 332 268.71 332.07C268.88 332.13 269.05 332.19 269.22 332.26C269.32 332.29 269.41 332.33 269.51 332.38C269.63 332.42 269.74 332.46 269.85 332.52C270.18 332.65 270.51 332.79 270.84 332.94H270.85C271.17 333.08 271.47 333.23 271.78 333.38C271.79 333.39 271.8 333.39 271.81 333.39C272.22 333.6 272.63 333.81 273.03 334.03C273.3 334.17 273.57 334.33 273.84 334.49C273.96 334.55 274.08 334.62 274.2 334.7C274.22 334.7 274.23 334.7 274.24 334.72C274.53 334.89 274.82 335.07 275.1 335.25C275.18 335.3 275.26 335.35 275.34 335.4C275.43 335.46 275.53 335.52 275.62 335.59C275.7 335.64 275.79 335.7 275.87 335.76C275.92 335.79 275.96 335.82 276.01 335.86C276.11 335.92 276.22 335.99 276.32 336.06C276.39 336.11 276.46 336.16 276.53 336.22C276.57 336.23 276.6 336.26 276.63 336.29C276.99 336.54 277.34 336.8 277.68 337.07C277.99 337.3 278.3 337.55 278.6 337.8C278.82 337.98 279.05 338.17 279.27 338.37C279.33 338.42 279.4 338.48 279.47 338.54C279.5 338.57 279.53 338.6 279.56 338.62C279.7 338.74 279.83 338.86 279.96 338.98C280.12 339.13 280.28 339.28 280.44 339.44C280.6 339.58 280.76 339.74 280.91 339.89C281.08 340.05 281.24 340.21 281.4 340.38C281.5 340.48 281.59 340.57 281.68 340.67C281.73 340.72 281.78 340.78 281.83 340.83C281.84 340.84 281.85 340.85 281.86 340.86V340.88C281.86 340.88 281.89 340.89 281.9 340.9L281.92 340.92C282.13 341.14 282.34 341.38 282.54 341.61C282.61 341.68 282.68 341.75 282.74 341.82C282.84 341.94 282.94 342.05 283.04 342.17C283.18 342.33 283.32 342.49 283.44 342.65C283.57 342.81 283.71 342.97 283.83 343.14C284.09 343.45 284.34 343.76 284.58 344.08C284.74 344.3 284.9 344.52 285.06 344.74C285.15 344.87 285.23 344.99 285.32 345.11C285.35 345.16 285.38 345.2 285.41 345.24C285.47 345.33 285.53 345.42 285.58 345.5C285.67 345.63 285.76 345.76 285.84 345.88C285.93 346.02 286.02 346.15 286.1 346.28C286.1 346.29 286.12 346.31 286.12 346.32C286.14 346.35 286.16 346.37 286.17 346.4C286.3 346.58 286.43 346.78 286.54 346.98C286.6 347.07 286.65 347.16 286.7 347.25C286.73 347.28 286.74 347.3 286.75 347.33C286.79 347.38 286.81 347.42 286.84 347.47C287.05 347.83 287.25 348.19 287.45 348.55C287.47 348.57 287.48 348.6 287.49 348.62C287.5 348.63 287.51 348.64 287.51 348.65C287.53 348.67 287.53 348.69 287.54 348.71C287.56 348.73 287.56 348.74 287.57 348.76C287.63 348.87 287.69 348.99 287.75 349.1C287.85 349.3 287.95 349.49 288.05 349.68C288.1 349.76 288.14 349.85 288.18 349.93C288.22 350 288.25 350.08 288.28 350.15C288.41 350.4 288.52 350.64 288.64 350.89C288.72 351.05 288.79 351.21 288.86 351.38C288.89 351.44 288.92 351.5 288.94 351.56C289.08 351.87 289.21 352.18 289.34 352.49C289.35 352.51 289.36 352.53 289.36 352.55C289.38 352.59 289.4 352.63 289.41 352.66C289.44 352.74 289.46 352.81 289.49 352.87C289.56 353.04 289.62 353.21 289.68 353.37C289.72 353.47 289.76 353.56 289.79 353.66C289.79 353.68 289.81 353.7 289.81 353.72C289.83 353.75 289.84 353.78 289.85 353.81C290.01 354.25 290.16 354.69 290.31 355.14C290.61 356.04 290.86 356.95 291.09 357.86C291.2 358.32 291.3 358.79 291.4 359.25C291.84 361.36 292.1 363.53 292.16 365.71L299.41 364.41L299.66 363.77C298.72 358.46 298.86 353.27 297.89 348.03C297.81 347.63 297.73 347.23 297.64 346.82V346.8C297.46 346 297.26 345.2 297.01 344.4C292.9 330.97 279.38 320.54 265.34 320.43V320.4L244.55 135.43V135.4C247.06 133.75 249.87 132.96 252.45 131.34C252.96 131.02 253.47 130.68 253.96 130.32C254.13 130.2 254.3 130.07 254.47 129.94C254.69 129.77 254.9 129.6 255.11 129.43C255.25 129.32 255.4 129.2 255.54 129.07C255.63 129 255.72 128.92 255.81 128.84C256 128.68 256.18 128.52 256.36 128.35C256.55 128.19 256.73 128.02 256.91 127.84C256.96 127.8 257.01 127.75 257.06 127.7C257.07 127.69 257.09 127.68 257.1 127.66C257.26 127.51 257.41 127.36 257.56 127.2C257.78 126.98 257.99 126.76 258.19 126.53C258.23 126.49 258.27 126.45 258.31 126.41C258.44 126.27 258.57 126.13 258.69 125.98C258.79 125.88 258.88 125.77 258.97 125.66C259.06 125.56 259.15 125.46 259.24 125.35C259.6 124.92 259.95 124.48 260.28 124.04C260.36 123.94 260.42 123.85 260.49 123.76C260.56 123.66 260.63 123.56 260.7 123.47C260.81 123.33 260.91 123.18 261.01 123.03C261.26 122.69 261.49 122.35 261.71 122C261.76 121.93 261.8 121.85 261.85 121.78C261.85 121.76 261.87 121.75 261.88 121.73C261.89 121.72 261.89 121.71 261.9 121.7C261.94 121.63 261.99 121.56 262.03 121.49C262.1 121.37 262.18 121.25 262.25 121.13C262.37 120.93 262.48 120.73 262.6 120.53V120.52C262.66 120.42 262.72 120.3 262.79 120.19C262.85 120.08 262.91 119.96 262.98 119.85C262.99 119.83 263.01 119.81 263.01 119.79C263.02 119.78 263.03 119.76 263.03 119.75C263.16 119.52 263.29 119.29 263.41 119.05C263.54 118.8 263.67 118.55 263.79 118.3C263.84 118.18 263.89 118.07 263.94 117.96C263.99 117.85 264.05 117.74 264.09 117.63C264.09 117.61 264.11 117.6 264.12 117.58C264.14 117.53 264.17 117.47 264.2 117.41C264.2 117.38 264.22 117.36 264.23 117.33C264.27 117.26 264.3 117.18 264.33 117.11C264.35 117.06 264.37 117.02 264.39 116.97C264.48 116.77 264.57 116.57 264.65 116.36C264.68 116.28 264.72 116.19 264.75 116.11C264.85 115.87 264.95 115.63 265.04 115.38C265.09 115.25 265.14 115.12 265.19 114.99C265.27 114.79 265.34 114.59 265.41 114.39C265.57 113.92 265.72 113.45 265.86 112.97C265.88 112.91 265.9 112.84 265.92 112.78C266 112.51 266.08 112.24 266.15 111.97C266.23 111.7 266.29 111.43 266.36 111.16C266.5 110.61 266.61 110.07 266.72 109.52C267.14 107.38 267.34 105.21 267.31 103.08C267.23 97.9 265.65 92.82 265.69 87.62L264.65 86.67L258.16 87.52C258.21 87.8 258.26 88.07 258.31 88.35C259.08 92.93 258.95 97.46 258.03 101.74C257.86 102.55 257.66 103.35 257.43 104.15C257.2 104.94 256.94 105.72 256.66 106.49C256.53 106.84 256.4 107.19 256.25 107.54C256.15 107.8 256.04 108.06 255.92 108.32C255.87 108.47 255.8 108.62 255.73 108.76C255.69 108.86 255.65 108.96 255.6 109.06C255.5 109.28 255.4 109.5 255.29 109.72C255.27 109.77 255.24 109.83 255.22 109.88C255.21 109.9 255.2 109.91 255.19 109.93C255.19 109.95 255.17 109.96 255.16 109.98C255.13 110.07 255.08 110.15 255.03 110.24C254.98 110.36 254.92 110.47 254.85 110.59C254.77 110.76 254.68 110.92 254.59 111.09C254.56 111.16 254.52 111.23 254.47 111.3C254.46 111.33 254.44 111.37 254.42 111.4C254.39 111.46 254.36 111.51 254.33 111.57C254.25 111.73 254.15 111.88 254.06 112.04C254.03 112.09 254.01 112.14 253.97 112.18C253.8 112.49 253.62 112.8 253.43 113.09C253.4 113.14 253.38 113.18 253.35 113.22C253.17 113.5 252.99 113.78 252.79 114.06C252.79 114.09 252.76 114.12 252.73 114.14C252.67 114.24 252.6 114.34 252.53 114.44C252.5 114.49 252.47 114.53 252.43 114.58C252.37 114.68 252.31 114.78 252.24 114.87C252.19 114.93 252.14 114.99 252.1 115.05C252.1 115.07 252.08 115.09 252.06 115.11C252.03 115.15 252 115.2 251.96 115.24C251.95 115.25 251.94 115.27 251.93 115.28C251.93 115.29 251.92 115.3 251.92 115.3C251.9 115.33 251.89 115.35 251.87 115.37C251.84 115.41 251.8 115.46 251.77 115.5C251.77 115.51 251.76 115.52 251.75 115.53C251.61 115.72 251.47 115.91 251.32 116.1C251.3 116.12 251.29 116.14 251.27 116.16C251.04 116.46 250.79 116.76 250.54 117.05C250.34 117.3 250.12 117.55 249.91 117.79C249.82 117.9 249.72 118 249.63 118.1C249.32 118.44 249 118.78 248.68 119.1C248.56 119.23 248.44 119.35 248.32 119.46C247.93 119.85 247.54 120.22 247.13 120.59C246.82 120.87 246.51 121.14 246.19 121.4C245.57 121.93 244.92 122.43 244.26 122.9C244.26 122.9 244.25 122.92 244.24 122.92C244.15 122.98 244.07 123.04 243.98 123.1C243.73 123.28 243.47 123.46 243.21 123.63C242.9 123.85 242.58 124.06 242.25 124.25C242.12 124.34 241.99 124.42 241.86 124.49C241.7 124.59 241.54 124.69 241.38 124.78C241.24 124.86 241.09 124.95 240.95 125.03C240.31 125.39 239.66 125.73 238.99 126.05C238.94 126.08 238.9 126.1 238.85 126.12C238.66 126.21 238.47 126.3 238.28 126.38C238.18 126.43 238.08 126.48 237.98 126.52C237.88 126.57 237.79 126.61 237.69 126.65C237.68 126.65 237.68 126.66 237.67 126.66C237.43 126.76 237.19 126.86 236.95 126.96C236.32 127.22 235.68 127.46 235.03 127.68C234.71 127.79 234.39 127.9 234.06 128C233.77 128.09 233.47 128.18 233.17 128.26C233 128.31 232.83 128.36 232.65 128.41C232.28 128.51 231.91 128.6 231.53 128.69L239.07 197.82V197.85L237.08 200.28V200.25L228.03 126.15V126.12C228.36 126.08 228.69 126.02 229.02 125.95C229.2 125.92 229.37 125.89 229.54 125.85C229.75 125.81 229.96 125.76 230.16 125.72C230.43 125.65 230.71 125.59 230.98 125.52C231.46 125.4 231.94 125.27 232.4 125.13C232.61 125.07 232.81 125.01 233 124.95C233.47 124.81 233.94 124.65 234.39 124.48C234.58 124.41 234.78 124.33 234.97 124.26C235.2 124.18 235.43 124.09 235.66 123.99C235.72 123.97 235.78 123.94 235.84 123.92C235.99 123.86 236.14 123.8 236.28 123.73C236.37 123.7 236.47 123.66 236.56 123.61C236.86 123.49 237.15 123.35 237.44 123.21C237.52 123.18 237.59 123.14 237.66 123.11C237.94 122.98 238.21 122.84 238.48 122.7C238.62 122.63 238.75 122.56 238.88 122.49C239.03 122.41 239.18 122.33 239.33 122.24C239.48 122.16 239.62 122.08 239.77 121.99C239.87 121.93 239.98 121.87 240.08 121.82C240.25 121.72 240.41 121.62 240.58 121.52C240.66 121.48 240.73 121.43 240.81 121.38C240.97 121.28 241.13 121.18 241.29 121.07C241.4 121.01 241.51 120.94 241.61 120.87C241.83 120.73 242.04 120.58 242.25 120.43C242.39 120.34 242.51 120.24 242.65 120.15C242.65 120.14 242.66 120.14 242.66 120.14C242.68 120.12 242.71 120.11 242.73 120.09C243.06 119.85 243.39 119.6 243.71 119.34C243.8 119.28 243.89 119.2 243.98 119.13C244.16 118.99 244.34 118.84 244.51 118.69C244.55 118.66 244.58 118.64 244.61 118.61C244.76 118.49 244.9 118.37 245.04 118.24C245.29 118.02 245.55 117.79 245.79 117.56C246.01 117.37 246.23 117.16 246.44 116.95C246.48 116.91 246.52 116.87 246.56 116.83C246.85 116.55 247.13 116.26 247.4 115.97C247.67 115.67 247.94 115.38 248.2 115.07C248.31 114.95 248.41 114.83 248.51 114.71C248.55 114.66 248.6 114.6 248.65 114.54C248.97 114.16 249.28 113.76 249.57 113.36C249.59 113.34 249.61 113.31 249.63 113.28C249.91 112.91 250.17 112.54 250.42 112.15C250.47 112.09 250.51 112.03 250.55 111.97C250.58 111.92 250.61 111.88 250.64 111.83C250.73 111.69 250.82 111.55 250.91 111.41C250.92 111.41 250.92 111.41 250.92 111.41C250.94 111.39 250.95 111.37 250.96 111.35C250.98 111.31 251.01 111.26 251.04 111.22C251.05 111.2 251.06 111.17 251.08 111.15C251.08 111.15 251.11 111.09 251.13 111.07C251.16 111.01 251.19 110.96 251.23 110.9C251.34 110.71 251.46 110.52 251.57 110.32C251.64 110.21 251.71 110.1 251.77 109.98C251.93 109.69 252.09 109.4 252.24 109.11C252.36 108.87 252.48 108.63 252.6 108.38C252.63 108.31 252.67 108.24 252.7 108.17C252.77 108.03 252.83 107.89 252.89 107.74C252.93 107.65 252.98 107.56 253.02 107.47C253.06 107.38 253.1 107.29 253.14 107.19C253.18 107.1 253.22 107 253.26 106.9C253.42 106.53 253.57 106.15 253.71 105.77C253.99 105 254.25 104.22 254.47 103.43C254.7 102.63 254.89 101.82 255.05 101C255.43 99.13 255.62 97.19 255.64 95.2C255.67 91.73 255.11 88.36 255.04 84.92V84.89C255.46 84.44 266.16 83.45 267.44 83.57C267.83 83.6 268.12 83.71 268.33 84.07V84.1C268.36 87.66 268.91 91.19 269.42 94.72C269.47 95.11 269.53 95.5 269.59 95.9C269.91 98.25 270.19 100.6 270.26 102.96C270.34 105.54 270.12 108.09 269.63 110.58C269.54 111.04 269.44 111.49 269.33 111.95C269.33 112.03 269.3 112.1 269.28 112.17C269.24 112.37 269.19 112.57 269.13 112.77C269.07 113.02 269 113.26 268.93 113.5C268.86 113.78 268.78 114.05 268.69 114.33C268.65 114.44 268.62 114.54 268.59 114.65C268.58 114.66 268.58 114.68 268.58 114.69C268.44 115.12 268.3 115.55 268.14 115.97C268.02 116.32 267.89 116.67 267.75 117.01C267.71 117.1 267.68 117.19 267.64 117.27C267.61 117.36 267.57 117.44 267.53 117.53C267.43 117.79 267.32 118.04 267.2 118.3C267.09 118.56 266.98 118.81 266.86 119.06C266.7 119.4 266.54 119.73 266.37 120.06C266.15 120.51 265.91 120.95 265.67 121.38C265.6 121.5 265.53 121.63 265.45 121.76C265.25 122.13 265.03 122.49 264.8 122.85C264.78 122.89 264.75 122.93 264.73 122.97C264.47 123.39 264.21 123.8 263.93 124.2C263.84 124.33 263.75 124.46 263.66 124.59C263.63 124.63 263.6 124.67 263.57 124.71C263.55 124.75 263.51 124.79 263.48 124.83C263.48 124.83 263.477 124.837 263.47 124.85C263.47 124.85 263.43 124.92 263.39 124.96C263.35 125.03 263.29 125.11 263.23 125.18C263.16 125.29 263.08 125.4 263 125.5C262.95 125.57 262.89 125.64 262.83 125.71C262.61 126.01 262.38 126.31 262.14 126.59C262.1 126.65 262.06 126.7 262.01 126.76C261.83 126.99 261.64 127.22 261.43 127.44C261.29 127.62 261.13 127.8 260.97 127.98C260.9 128.06 260.83 128.14 260.76 128.21C260.71 128.27 260.66 128.32 260.6 128.37C260.59 128.4 260.56 128.44 260.51 128.47C260.43 128.57 260.34 128.66 260.24 128.76C260.21 128.8 260.16 128.85 260.12 128.89C260.08 128.94 260.04 128.98 259.99 129.02C259.96 129.07 259.92 129.11 259.87 129.14C259.77 129.26 259.67 129.36 259.56 129.45C259.4 129.63 259.24 129.78 259.08 129.93C259.03 129.98 258.98 130.03 258.93 130.08C258.87 130.14 258.8 130.21 258.73 130.27C258.34 130.64 257.94 131 257.54 131.34C257.13 131.69 256.72 132.03 256.29 132.36H256.28C255.94 132.63 255.6 132.89 255.26 133.13C255.17 133.19 255.09 133.26 255 133.32C254.56 133.63 254.12 133.93 253.67 134.22C253.22 134.52 252.76 134.8 252.29 135.06C251.82 135.34 251.35 135.6 250.87 135.84C250.63 135.97 250.38 136.09 250.14 136.21C249.9 136.33 249.65 136.44 249.41 136.55C249.23 136.64 249.06 136.72 248.88 136.79C248.72 136.86 248.56 136.93 248.4 137C248.24 137.07 248.07 137.14 247.91 137.2L267.46 316.76L268.15 317.61C282.77 318.64 295.99 330.22 299.97 344.2C300.11 344.68 300.23 345.16 300.34 345.64C300.45 346.12 300.55 346.6 300.65 347.08C301.86 353.3 301.59 359.73 302.71 365.97C302.8 366.44 302.89 366.91 302.99 367.38V367.41L303.02 367.39ZM287.79 265.87C288.36 266.82 309.05 300.55 340.05 272.92C305.33 313.43 288.16 266.89 287.79 265.87ZM337.67 267.15L334.22 269.79C322.9 277.14 304.62 276.42 294.82 266.79C294.54 266.52 293.85 266.82 294.2 265.67C294.41 265.71 294.62 265.75 294.84 265.77C294.73 265.69 294.63 265.58 294.52 265.48C294.25 265.21 293.55 265.51 293.9 264.37C300.24 265.55 307.26 263.71 313.63 263.4C321.57 263.03 329.51 264.14 337.24 265.84L336 266.79C336.56 266.9 337.11 267.02 337.67 267.15ZM344.04 248.77C328.87 261.76 305.22 263.81 286.97 256.72L282.46 245.1C282.54 245.13 282.61 245.16 282.69 245.19L282.2 243.94C305.47 253.6 333.91 249.76 353.32 233.73C353.17 234.39 352.97 235.04 352.73 235.69C353.09 235.4 353.45 235.11 353.8 234.82C352.54 240.21 348.16 245.25 344.04 248.77ZM360.26 232.23C343.16 232.52 348.24 223.92 351.91 222.57C371.2 217.15 368.49 235.51 368.49 235.51C368.49 235.51 365.7 231.84 360.26 232.23ZM412.33 310.95C412.17 311.64 405.4 312.75 403.84 313.26C394.63 316.27 387.19 323.82 383.88 332.91C381.23 340.24 381.76 346.98 382.51 354.58L369.34 356.19C369.26 348.37 366.72 340.76 367.14 332.92C367.9 318.4 378.22 304.18 392.25 299.92L392.74 298.94L387.95 257.67L390.71 258.17L395.65 302.04C381.99 305.26 371.12 318.43 370.09 332.43C369.6 339.19 371.49 345.3 371.81 351.93L372.2 352.51L379.56 352.17C376.13 334.94 385.31 316.46 402.14 310.62C403.55 310.13 408.59 309.39 408.88 308.51L402.97 260.39L406.1 260.95L412.33 310.95ZM449.71 240.82C445.35 245.01 437.58 243.22 432.88 240.18C431.13 239.04 429.36 237.29 428 235.27C427.99 235.27 427.99 235.27 427.99 235.27C425.38 231.41 424.23 226.55 427.39 223.04C427.52 223.5 427.65 223.96 427.81 224.41C427.89 224.29 427.98 224.18 428.08 224.07C428.67 226.28 429.57 228.34 430.71 230.22C430.73 230.25 430.76 230.29 430.78 230.32C435.18 236.63 442.59 240.44 450.78 239.59C450.45 240.05 450.1 240.47 449.71 240.83V240.82Z" fill="black"/>
<path d="M253.29 106.88C253.32 106.82 253.34 106.77 253.37 106.72C253.38 106.68 253.4 106.64 253.41 106.61C253.53 106.33 253.64 106.04 253.74 105.75C253.6 106.13 253.45 106.51 253.29 106.88ZM258.35 130.61C258.09 130.86 257.83 131.09 257.57 131.32C257.97 130.98 258.37 130.62 258.76 130.25C258.63 130.38 258.49 130.5 258.35 130.61ZM262.25 121.12C262.18 121.25 262.1 121.37 262.03 121.49C262.11 121.37 262.18 121.25 262.26 121.13L262.25 121.12ZM263.04 119.75C263.13 119.6 263.22 119.45 263.3 119.29C263.34 119.21 263.38 119.13 263.42 119.05C263.3 119.29 263.17 119.52 263.04 119.75ZM263.64 124.62C263.64 124.62 263.61 124.66 263.6 124.69C263.63 124.65 263.66 124.61 263.69 124.57C263.78 124.44 263.87 124.31 263.96 124.18C263.86 124.33 263.75 124.47 263.64 124.62ZM264.75 122.95C264.56 123.26 264.36 123.57 264.15 123.88C264.09 123.98 264.02 124.08 263.96 124.18C264.24 123.78 264.5 123.37 264.76 122.95H264.75ZM265.33 121.99C265.17 122.28 265 122.56 264.83 122.83C265.06 122.47 265.28 122.11 265.48 121.74C265.44 121.82 265.39 121.91 265.33 121.99ZM265.42 114.39C265.51 114.12 265.6 113.86 265.69 113.59C265.75 113.38 265.81 113.18 265.87 112.97C265.73 113.45 265.58 113.92 265.42 114.39ZM265.88 121.02C265.82 121.13 265.76 121.25 265.7 121.36C265.94 120.93 266.18 120.49 266.4 120.04C266.23 120.37 266.06 120.7 265.88 121.02ZM267.77 116.99C267.74 117.08 267.7 117.16 267.67 117.25C267.71 117.17 267.74 117.08 267.78 116.99C267.92 116.65 268.05 116.3 268.17 115.95C268.04 116.3 267.91 116.65 267.77 116.99ZM268.53 114.89C268.42 115.25 268.3 115.6 268.17 115.95C268.33 115.53 268.47 115.1 268.61 114.67C268.58 114.74 268.56 114.82 268.53 114.89ZM281.68 340.67C281.68 340.67 281.76 340.76 281.8 340.81C281.81 340.82 281.82 340.82 281.83 340.83C281.78 340.78 281.73 340.72 281.68 340.67ZM286.75 347.33C286.75 347.33 286.81 347.42 286.83 347.47H286.84C286.84 347.47 286.79 347.38 286.75 347.33ZM287.51 348.65C287.51 348.65 287.52 348.68 287.52 348.69C287.53 348.7 287.54 348.7 287.54 348.71C287.53 348.69 287.53 348.67 287.51 348.65ZM288.05 349.68C288.1 349.76 288.14 349.85 288.17 349.93C288.13 349.85 288.09 349.76 288.04 349.68H288.05ZM288.3 359.33C288.27 359.19 288.24 359.06 288.2 358.92C288.33 359.46 288.45 360.01 288.56 360.56C288.48 360.15 288.39 359.74 288.3 359.33ZM288.64 350.89C288.69 350.99 288.73 351.1 288.77 351.2C288.8 351.24 288.82 351.28 288.83 351.33C288.85 351.34 288.86 351.36 288.86 351.38C288.79 351.21 288.72 351.05 288.64 350.89ZM289.81 353.72C289.81 353.72 289.84 353.78 289.84 353.81H289.85C289.85 353.81 289.83 353.75 289.81 353.72Z" fill="black"/>
<path d="M283.04 342.17C283.1 342.24 283.15 342.3 283.2 342.37C283.24 342.42 283.28 342.46 283.32 342.51C283.36 342.56 283.4 342.6 283.44 342.65C283.32 342.49 283.18 342.33 283.04 342.17ZM262.25 121.12H262.26C262.37 120.93 262.49 120.73 262.6 120.53C262.48 120.73 262.37 120.93 262.25 121.12ZM251.91 115.31C251.91 115.31 251.89 115.35 251.88 115.37C251.9 115.35 251.91 115.33 251.93 115.3C251.93 115.3 251.923 115.303 251.91 115.31Z" fill="black"/>
<path d="M244.54 118.68C244.37 118.83 244.19 118.98 244.01 119.12C243.92 119.19 243.83 119.27 243.74 119.33C243.68 119.38 243.63 119.43 243.57 119.47C243.74 119.35 243.9 119.22 244.05 119.1C244.21 118.97 244.36 118.84 244.52 118.71C244.56 118.68 244.6 118.64 244.64 118.6C244.61 118.63 244.58 118.65 244.54 118.68Z" fill="black"/>
<path d="M243.1 119.83C243.24 119.73 243.38 119.63 243.51 119.52C243.53 119.52 243.55 119.49 243.57 119.47C243.63 119.43 243.68 119.38 243.74 119.33C243.42 119.59 243.09 119.84 242.76 120.08C242.88 120 242.99 119.91 243.1 119.83Z" fill="black"/>
<path d="M368.49 235.51C368.49 235.51 365.7 231.84 360.26 232.23C343.16 232.52 348.24 223.92 351.91 222.57C371.2 217.15 368.49 235.51 368.49 235.51Z" fill="#434343"/>
<path d="M351.91 222.57C348.24 223.92 343.16 232.52 360.26 232.23C365.7 231.84 368.49 235.51 368.49 235.51C368.49 235.51 371.2 217.15 351.91 222.57ZM287.79 265.87C288.16 266.89 305.33 313.43 340.05 272.92C309.05 300.55 288.36 266.82 287.79 265.87Z" fill="#606060"/>
</g>
<defs>
<clipPath id="clip0_33_328">
<rect width="536" height="522" fill="white" transform="translate(60 60)"/>
</clipPath>
</defs>
</svg>
